<svg xmlns="http://www.w3.org/2000/svg" xmlns:xlink="http://www.w3.org/1999/xlink" width="500" zoomAndPan="magnify" viewBox="0 0 375 374.999991" height="500" preserveAspectRatio="xMidYMid meet" version="1.0"><defs><g/><clipPath id="7198c73dce"><path d="M 136 99.972656 L 239 99.972656 L 239 201.972656 L 136 201.972656 Z M 136 99.972656 " clip-rule="nonzero"/></clipPath><clipPath id="7d8c564d47"><path d="M 235 141 L 239.691406 141 L 239.691406 147 L 235 147 Z M 235 141 " clip-rule="nonzero"/></clipPath><clipPath id="70391008c5"><path d="M 175 197 L 181 197 L 181 201.972656 L 175 201.972656 Z M 175 197 " clip-rule="nonzero"/></clipPath></defs><rect x="-37.5" width="450" fill="#ffffff" y="-37.499999" height="449.999989" fill-opacity="1"/><rect x="-37.5" width="450" fill="#ffffff" y="-37.499999" height="449.999989" fill-opacity="1"/><g clip-path="url(#7198c73dce)"><path fill="#3898ec" d="M 235.851562 161.699219 C 235.566406 159.367188 234.636719 157.179688 233.054688 155.082031 C 234.710938 152.320312 235.96875 149.757812 236.785156 147.503906 C 237.007812 150.992188 237.050781 155.589844 236.046875 160.777344 C 235.984375 161.09375 235.917969 161.394531 235.851562 161.699219 Z M 184.175781 199.484375 C 186.515625 198.691406 189.171875 197.425781 192.097656 195.703125 C 193.6875 196.792969 195.75 198.105469 198.609375 198.523438 C 195.882812 199.109375 192.648438 199.570312 188.878906 199.625 C 188.6875 199.628906 188.492188 199.628906 188.300781 199.628906 C 186.980469 199.628906 185.628906 199.578125 184.175781 199.484375 Z M 157.035156 189.378906 C 158.269531 189.378906 159.703125 189.160156 161.289062 188.722656 C 162.34375 188.433594 163.484375 188.039062 164.671875 187.5625 C 167.164062 191.378906 170.007812 195.1875 174.472656 197.855469 C 170.390625 196.824219 165.476562 195.101562 160.144531 191.742188 C 159.070312 191.054688 158.007812 190.324219 156.804688 189.445312 C 156.769531 189.421875 156.734375 189.390625 156.699219 189.367188 C 156.8125 189.371094 156.917969 189.378906 157.035156 189.378906 Z M 140.171875 167.132812 C 140.886719 167.492188 141.8125 167.722656 143.015625 167.722656 C 143.285156 167.722656 143.574219 167.707031 143.863281 167.683594 C 144.511719 171.230469 145.511719 176.226562 148.3125 181.324219 C 147.09375 179.882812 145.859375 178.246094 144.660156 176.363281 C 143.230469 174.078125 142.007812 171.6875 140.921875 169.058594 C 140.664062 168.417969 140.417969 167.773438 140.171875 167.132812 Z M 146.316406 165.503906 C 145.859375 165.632812 145.414062 165.734375 144.992188 165.820312 C 144.566406 161.78125 143.960938 154.882812 145.433594 144.078125 C 146.5625 148.46875 148.875 154.484375 155.46875 161.394531 C 152.003906 163.40625 148.929688 164.789062 146.316406 165.503906 Z M 157.3125 160.339844 C 156.542969 155.351562 155.75 149.84375 154.894531 137.585938 C 157.320312 140.746094 161.421875 145.261719 170.507812 150.589844 C 165.964844 154.429688 161.433594 157.78125 157.3125 160.339844 Z M 172.292969 149.054688 C 170.246094 142.320312 167.941406 134.871094 165.097656 128.5 C 168.917969 130.316406 173.671875 132.367188 185.570312 135.976562 C 181.46875 140.523438 176.90625 145.019531 172.292969 149.054688 Z M 192.566406 127.585938 C 190.894531 129.769531 189.078125 131.984375 187.15625 134.183594 C 184.722656 129.882812 180.589844 122.878906 174.601562 118.007812 C 181.363281 118.445312 189.421875 119.027344 197.660156 120.335938 C 196.199219 122.644531 194.488281 125.078125 192.566406 127.585938 Z M 198.757812 118.539062 C 195.289062 115.34375 189.917969 110.644531 181.722656 108.480469 C 184.886719 108.105469 188.835938 107.746094 193.289062 107.746094 C 196.71875 107.746094 200.054688 107.964844 203.210938 108.402344 C 202.597656 111.160156 201.074219 114.636719 198.757812 118.539062 Z M 205.121094 107.316406 C 205.328125 105.539062 205.097656 104.246094 204.652344 103.308594 C 208.699219 104.859375 214.25 107.40625 219.980469 112.519531 C 216.585938 110.488281 211.890625 108.484375 205.121094 107.316406 Z M 232.976562 157.648438 C 234.113281 159.585938 235.121094 162.207031 234.515625 165.839844 C 234.320312 166.859375 234.050781 167.765625 233.789062 168.601562 C 233.738281 168.753906 233.683594 168.902344 233.625 169.050781 C 233.078125 170.292969 232.3125 171.683594 231.363281 173.164062 C 232.292969 169.738281 233.207031 164.699219 232.976562 157.648438 Z M 221.742188 171.347656 C 224.949219 172.742188 228.472656 174.457031 228.820312 176.765625 L 228.8125 176.773438 C 227.015625 179.121094 224.96875 181.464844 222.71875 183.761719 C 222.636719 179.917969 222.308594 175.753906 221.742188 171.347656 Z M 213.722656 191.695312 C 212.355469 191.46875 210.523438 190.882812 207.765625 185.144531 C 210.632812 185.507812 215.382812 186.058594 219.726562 186.058594 C 219.949219 186.058594 220.167969 186.058594 220.386719 186.054688 C 218.191406 188.128906 215.910156 190.058594 213.722656 191.695312 Z M 206.109375 196.320312 C 204.605469 196.792969 202.734375 197.371094 200.617188 197.371094 C 198.496094 197.371094 196.488281 196.792969 194.519531 195.613281 C 195.363281 195.640625 196.304688 195.664062 197.308594 195.664062 C 202.074219 195.664062 206.261719 195.203125 209.984375 194.257812 C 208.589844 195.121094 207.28125 195.820312 206.109375 196.320312 Z M 162.90625 184.5625 C 158.074219 181.476562 150.863281 176.296875 145.578125 167.433594 C 145.980469 167.351562 146.390625 167.253906 146.816406 167.136719 C 149.523438 166.394531 152.6875 164.976562 156.238281 162.917969 C 157.304688 168.675781 158.921875 176.785156 162.90625 184.5625 Z M 224.988281 127.875 C 226.25 124.828125 226.882812 122.246094 226.882812 120.152344 C 229.664062 124 233.238281 129.632812 235.347656 138.097656 C 233.605469 135.011719 230.65625 131.464844 224.988281 127.875 Z M 222.105469 169.800781 C 223.9375 167.703125 225.671875 165.589844 227.269531 163.507812 C 228.863281 161.425781 230.304688 159.394531 231.578125 157.445312 C 231.710938 161.707031 231.660156 168.4375 229.566406 174.894531 C 228.828125 173.558594 227.066406 171.933594 222.105469 169.800781 Z M 220.65625 184.683594 C 216.984375 184.683594 212.800781 184.359375 208.214844 183.734375 C 212.410156 180.042969 216.550781 175.964844 220.304688 171.828125 C 220.695312 174.886719 221.273438 179.835938 221.382812 184.675781 C 221.167969 184.679688 220.925781 184.683594 220.65625 184.683594 Z M 154.398438 187.480469 C 151.671875 184.367188 147.730469 179.785156 145.695312 170.101562 C 148.59375 174.445312 153.535156 180.652344 163.101562 186.398438 C 162.222656 186.730469 161.378906 187.007812 160.582031 187.226562 C 157.964844 187.941406 155.851562 188.03125 154.398438 187.480469 Z M 179.316406 175.582031 C 174.003906 173.125 165.472656 168.910156 158.0625 161.878906 C 162.273438 159.277344 166.902344 155.863281 171.539062 151.941406 C 174.789062 162.886719 176.632812 168.9375 179.316406 175.582031 Z M 196.894531 160.710938 C 189.8125 158.027344 181.300781 154.730469 173.339844 150.390625 C 178.050781 146.277344 182.707031 141.691406 186.890625 137.042969 C 189.234375 141.695312 191.777344 146.9375 196.894531 160.710938 Z M 212.699219 142.769531 C 207.082031 140.707031 205.84375 140.335938 188.507812 135.21875 C 190.433594 133.007812 192.265625 130.777344 193.945312 128.585938 C 195.925781 126.003906 197.683594 123.492188 199.1875 121.109375 C 202.367188 124.644531 207.714844 130.894531 212.699219 142.769531 Z M 236.402344 143.730469 C 235.929688 146.207031 234.632812 149.34375 232.617188 152.886719 C 232.027344 147.730469 230.769531 139.640625 226.136719 130.4375 C 229.839844 133.058594 234.339844 136.941406 236.402344 143.730469 Z M 206.21875 185.460938 C 207.46875 188.007812 209.179688 191.207031 211.5625 192.472656 C 208.679688 193.332031 204.207031 194.363281 197.59375 194.363281 C 196.558594 194.363281 195.492188 194.335938 194.410156 194.285156 C 198.136719 191.902344 202.175781 188.882812 206.21875 185.460938 Z M 179.175781 177.238281 C 174.074219 180.917969 169.257812 183.796875 165.167969 185.601562 C 163.007812 181.539062 160.183594 175.933594 157.894531 163.742188 C 161.589844 167.0625 167.878906 172.230469 179.175781 177.238281 Z M 222.019531 126.136719 C 217.953125 124.019531 211.832031 121.3125 200.3125 119.269531 C 202.613281 115.375 204.152344 111.867188 204.816406 109.027344 C 209.136719 111.738281 215.746094 116.191406 222.019531 126.136719 Z M 225.109375 117.890625 C 225.664062 119.851562 225.210938 122.765625 223.800781 126.371094 C 220.867188 121.734375 216.238281 114.894531 207.820312 109.277344 C 212.765625 110.402344 219.320312 112.507812 225.109375 117.890625 Z M 166.574219 186.796875 C 170.703125 184.910156 175.503906 182.007812 180.5625 178.332031 C 182.726562 183.230469 185.609375 189.511719 190.007812 193.90625 C 184.675781 193.253906 176.210938 191.863281 166.574219 186.796875 Z M 181.132812 175.796875 C 178.375 168.910156 177.304688 165.707031 173.207031 152.089844 C 177.734375 154.5 183.726562 157.53125 196.738281 162.378906 C 191.644531 167.320312 186.277344 171.933594 181.132812 175.796875 Z M 198.566406 160.582031 C 195.746094 153.046875 192.566406 144.652344 188.597656 136.882812 C 203.683594 141.347656 207.105469 142.375 212.773438 144.515625 C 208.617188 149.921875 203.839844 155.320312 198.566406 160.582031 Z M 215.382812 143.890625 C 219.238281 138.710938 222.183594 133.964844 224.15625 129.757812 C 226.472656 134.277344 230.054688 141.886719 231.28125 153.125 C 228.90625 150.785156 225.097656 147.769531 215.382812 143.890625 Z M 215.648438 145.746094 C 220.5625 147.769531 227.203125 150.710938 231.238281 155.195312 C 229.796875 157.5 228.09375 159.9375 226.164062 162.457031 C 224.660156 164.417969 223.035156 166.410156 221.316406 168.390625 C 220.5625 163.566406 219.085938 155.097656 215.648438 145.746094 Z M 206.804688 182.949219 C 206.332031 181.707031 205.027344 178.113281 199.757812 163.570312 C 202.109375 164.390625 204.488281 165.1875 206.800781 165.957031 C 210.996094 167.355469 215.324219 168.796875 219.515625 170.429688 C 215.589844 174.789062 211.222656 179.089844 206.804688 182.949219 Z M 192.207031 193.902344 C 189.894531 191.722656 186.796875 188.558594 182.4375 178.664062 C 187.257812 180.523438 194.210938 183.019531 204.75 184.710938 C 200.421875 188.34375 196.113281 191.503906 192.207031 193.902344 Z M 214.277344 142.519531 C 212.019531 137.289062 208.09375 128.648438 201.121094 120.949219 C 207.101562 122.097656 215.308594 123.917969 222.980469 128.308594 C 221.097656 132.457031 218.105469 137.34375 214.277344 142.519531 Z M 208.214844 164.796875 C 205.417969 163.847656 202.539062 162.867188 199.710938 161.851562 C 204.996094 156.585938 209.785156 151.179688 213.960938 145.761719 C 215.722656 150.617188 218.152344 157.714844 219.894531 168.917969 C 216.019531 167.453125 212.058594 166.101562 208.214844 164.796875 Z M 205.222656 183.28125 C 200.277344 182.441406 192.035156 180.902344 182.371094 177 C 187.535156 173.109375 192.910156 168.476562 198.019531 163.519531 C 203.570312 178.972656 204.515625 181.597656 205.222656 183.28125 Z M 180.382812 199.035156 C 177.210938 197.914062 172.148438 196.039062 167.085938 188.613281 C 171.757812 190.898438 179.222656 194.113281 189.835938 195.289062 C 186.925781 196.914062 184.324219 198.042969 182.082031 198.65625 C 181.484375 198.820312 180.914062 198.949219 180.382812 199.035156 Z M 197.859375 101.542969 C 198.652344 101.652344 199.460938 101.789062 200.398438 101.972656 C 200.84375 102.0625 201.289062 102.167969 201.730469 102.277344 C 203.097656 102.972656 203.6875 104.46875 203.480469 106.726562 C 199.695312 104.875 193.859375 102.222656 185.828125 101.800781 C 187.992188 101.464844 190.382812 101.222656 192.914062 101.222656 C 194.59375 101.222656 196.257812 101.328125 197.859375 101.542969 Z M 138.570312 148.160156 C 138.710938 152.949219 139.6875 159.109375 143.246094 166.035156 C 141.054688 166.132812 139.660156 165.429688 139.078125 163.941406 C 138.390625 160.75 137.347656 155.847656 138.570312 148.160156 Z M 238.566406 150.867188 L 238.546875 150.238281 C 238.535156 149.460938 238.515625 148.816406 238.460938 148.183594 C 238.367188 146.667969 238.210938 145.863281 237.75 143.875 C 237.910156 142.796875 237.921875 141.828125 237.773438 140.972656 L 237.722656 140.757812 C 237.710938 140.652344 237.695312 140.546875 237.671875 140.441406 C 237.523438 139.675781 237.308594 138.78125 237.121094 138.003906 C 236.953125 137.28125 236.808594 136.6875 236.675781 136.191406 C 236.675781 136.1875 236.671875 136.183594 236.671875 136.179688 C 236.171875 134.433594 235.945312 133.664062 235.355469 132.175781 C 234.839844 130.695312 234.433594 129.726562 233.757812 128.34375 C 233.144531 127.007812 232.234375 125.414062 231.429688 124.011719 C 231.261719 123.714844 231.101562 123.433594 230.933594 123.140625 L 230.597656 122.605469 C 230.589844 122.589844 230.574219 122.570312 230.566406 122.558594 L 230.535156 122.515625 C 230.050781 121.765625 229.675781 121.222656 229.101562 120.523438 C 228.097656 119.160156 227.679688 118.695312 226.433594 117.453125 C 226.210938 116.875 225.910156 116.367188 225.515625 115.929688 L 225.308594 115.707031 C 225.25 115.636719 225.191406 115.570312 225.125 115.496094 L 223.6875 114 C 223.65625 113.957031 223.617188 113.921875 223.578125 113.886719 C 222.285156 112.605469 221.691406 112.03125 220.410156 110.996094 C 219.191406 109.917969 218.578125 109.472656 217.003906 108.34375 C 217.003906 108.34375 217 108.34375 217 108.34375 C 215.5 107.289062 214.832031 106.828125 213.394531 106.023438 C 212.027344 105.175781 211.160156 104.707031 209.695312 104.035156 C 208.65625 103.511719 207.308594 102.972656 206.121094 102.5 C 205.738281 102.347656 205.367188 102.199219 205.027344 102.058594 C 205.015625 102.054688 205 102.050781 204.984375 102.042969 L 204.804688 101.984375 C 204.675781 101.9375 204.550781 101.886719 204.425781 101.84375 C 204.417969 101.839844 204.40625 101.835938 204.398438 101.832031 L 202.40625 101.210938 L 202.085938 101.125 C 202.066406 101.117188 202.046875 101.113281 202.027344 101.109375 L 201.960938 101.101562 L 201.796875 101.050781 C 201.777344 101.046875 201.761719 101.039062 201.742188 101.035156 C 201.394531 100.964844 201.023438 100.890625 200.632812 100.8125 C 199.777344 100.636719 198.894531 100.488281 198.019531 100.371094 C 196.195312 100.117188 194.40625 99.992188 192.554688 99.992188 C 188.222656 99.992188 183.640625 100.660156 178.546875 102.035156 C 178.433594 102.066406 178.335938 102.128906 178.257812 102.210938 C 178.058594 102.351562 177.960938 102.605469 178.023438 102.847656 C 178.097656 103.128906 178.363281 103.3125 178.652344 103.289062 L 178.769531 103.277344 C 180.179688 103.179688 181.777344 103.074219 183.621094 103.074219 C 189.460938 103.074219 195 104.28125 200.460938 106.742188 C 198.464844 106.558594 196.023438 106.40625 193.117188 106.40625 C 188.292969 106.40625 183.101562 106.835938 177.6875 107.683594 L 177.5 107.714844 C 177.480469 107.71875 177.449219 107.726562 177.429688 107.730469 C 177.339844 107.753906 177.164062 107.804688 177.019531 107.953125 C 176.882812 108.097656 176.828125 108.300781 176.871094 108.492188 C 176.914062 108.6875 177.054688 108.84375 177.238281 108.914062 L 177.359375 108.960938 C 177.402344 108.976562 177.441406 108.984375 177.484375 108.992188 L 177.613281 109.011719 C 181.796875 109.84375 188.644531 111.214844 196.785156 118.710938 C 191.601562 117.949219 185.828125 117.222656 172.4375 116.476562 L 172.265625 116.46875 C 172.226562 116.46875 172.164062 116.472656 172.121094 116.476562 C 172.03125 116.492188 171.8125 116.527344 171.644531 116.703125 C 171.449219 116.902344 171.425781 117.210938 171.578125 117.441406 L 171.648438 117.542969 C 171.691406 117.605469 171.742188 117.65625 171.800781 117.699219 L 171.890625 117.761719 C 174.773438 120.003906 179.519531 123.710938 185.433594 134.304688 C 178.738281 132.277344 170.734375 129.777344 164 126.382812 L 163.871094 126.3125 C 163.804688 126.28125 163.734375 126.257812 163.660156 126.253906 L 163.535156 126.238281 C 163.359375 126.226562 163.1875 126.285156 163.0625 126.40625 C 163.0625 126.40625 163.039062 126.429688 163.039062 126.429688 C 162.921875 126.546875 162.859375 126.738281 162.867188 126.898438 C 162.867188 126.972656 162.871094 127.101562 162.9375 127.246094 L 162.988281 127.34375 C 165.382812 132.710938 166.960938 136.695312 170.605469 148.816406 C 165.914062 145.984375 159.070312 141.539062 154.65625 134.847656 L 154.605469 134.765625 C 154.449219 134.523438 154.136719 134.433594 153.871094 134.550781 C 153.671875 134.636719 153.542969 134.824219 153.519531 135.027344 C 153.414062 135.144531 153.359375 135.300781 153.367188 135.457031 C 153.765625 141.816406 154.300781 150.367188 155.644531 159.339844 C 152.148438 155.4375 147.421875 149.421875 146.019531 140.4375 C 145.992188 140.257812 145.878906 140.097656 145.71875 140.011719 C 145.558594 139.921875 145.363281 139.914062 145.195312 139.988281 L 144.992188 140.074219 C 144.796875 140.152344 144.664062 140.324219 144.628906 140.527344 C 143.898438 145.273438 142.605469 153.660156 143.304688 162.894531 C 141.183594 158.089844 138.933594 151.121094 140.074219 141.5 C 140.105469 141.234375 139.957031 140.980469 139.707031 140.882812 L 139.640625 140.851562 C 139.480469 140.777344 139.292969 140.777344 139.132812 140.851562 C 138.972656 140.925781 138.855469 141.070312 138.808594 141.242188 C 137.542969 146.238281 135.425781 154.601562 137.835938 163.949219 L 137.894531 164.136719 C 137.894531 164.148438 137.894531 164.160156 137.898438 164.171875 L 138.382812 165.789062 C 138.453125 165.992188 138.53125 166.199219 138.605469 166.410156 C 139.195312 168.144531 139.875 169.839844 140.625 171.453125 C 140.738281 171.71875 140.847656 171.972656 140.957031 172.222656 C 140.957031 172.226562 140.960938 172.230469 140.960938 172.234375 C 140.964844 172.234375 140.964844 172.234375 140.964844 172.234375 C 140.964844 172.242188 140.96875 172.242188 140.96875 172.25 C 141.800781 173.957031 142.136719 174.621094 142.96875 175.964844 C 143.757812 177.375 144.21875 178.039062 145.265625 179.53125 C 145.269531 179.535156 145.269531 179.535156 145.269531 179.539062 C 146.398438 181.113281 146.84375 181.722656 147.921875 182.941406 C 148.964844 184.234375 149.542969 184.828125 150.859375 186.152344 C 150.859375 186.15625 150.867188 186.160156 150.871094 186.164062 L 152.394531 187.625 C 152.457031 187.683594 152.523438 187.742188 152.59375 187.796875 L 152.824219 188.019531 C 153.152344 188.3125 153.527344 188.558594 153.941406 188.757812 C 154.828125 189.546875 156.453125 190.960938 157.761719 191.9375 C 157.769531 191.945312 157.777344 191.953125 157.789062 191.957031 L 158.167969 192.210938 L 158.300781 192.3125 C 158.3125 192.320312 158.324219 192.328125 158.335938 192.335938 L 159.894531 193.351562 C 159.898438 193.355469 159.902344 193.355469 159.90625 193.359375 L 159.910156 193.363281 C 161.453125 194.320312 162.140625 194.738281 163.589844 195.445312 C 164.972656 196.199219 165.652344 196.492188 167.402344 197.230469 C 167.40625 197.230469 167.40625 197.230469 167.410156 197.230469 C 169.097656 197.921875 169.84375 198.222656 171.367188 198.675781 C 172.839844 199.183594 173.660156 199.390625 175.367188 199.796875 C 175.375 199.800781 175.382812 199.800781 175.386719 199.800781 L 177.410156 200.234375 C 177.5 200.25 177.589844 200.265625 177.683594 200.277344 L 177.964844 200.335938 C 178.367188 200.410156 178.800781 200.445312 179.261719 200.445312 C 179.652344 200.445312 180.070312 200.417969 180.5 200.363281 C 183.753906 201.027344 184.125 201.097656 186.652344 201.164062 C 186.660156 201.164062 186.671875 201.164062 186.679688 201.164062 L 186.960938 201.15625 L 187.136719 201.164062 C 187.148438 201.164062 187.15625 201.167969 187.167969 201.167969 C 187.171875 201.167969 187.175781 201.167969 187.175781 201.167969 C 187.9375 201.15625 188.894531 201.121094 190.179688 201.046875 C 190.949219 201.011719 191.628906 200.96875 192.191406 200.925781 C 192.195312 200.925781 192.199219 200.925781 192.203125 200.925781 C 192.207031 200.925781 192.214844 200.925781 192.21875 200.921875 C 194.222656 200.691406 195.332031 200.535156 196.449219 200.324219 C 197.8125 200.09375 198.980469 199.816406 200.925781 199.320312 C 200.929688 199.320312 200.9375 199.320312 200.9375 199.316406 C 200.945312 199.316406 200.953125 199.3125 200.960938 199.3125 C 201.097656 199.269531 201.242188 199.226562 201.390625 199.179688 C 204.667969 198.179688 204.820312 198.125 206.773438 197.335938 L 206.820312 197.316406 C 206.828125 197.316406 206.832031 197.3125 206.835938 197.308594 L 206.90625 197.28125 L 207.128906 197.1875 C 207.140625 197.183594 207.148438 197.183594 207.160156 197.175781 C 207.167969 197.171875 207.1875 197.164062 207.199219 197.160156 C 207.207031 197.15625 207.21875 197.152344 207.230469 197.144531 L 207.785156 196.914062 C 207.851562 196.882812 207.910156 196.84375 207.960938 196.796875 C 209.824219 195.890625 211.9375 194.582031 214.160156 192.957031 C 215.539062 192.664062 215.6875 192.621094 216.671875 191.960938 L 216.765625 191.894531 C 216.777344 191.886719 216.792969 191.878906 216.804688 191.867188 L 217.015625 191.71875 C 217.015625 191.714844 217.019531 191.714844 217.019531 191.714844 C 217.316406 191.503906 217.636719 191.277344 217.890625 191.085938 C 217.894531 191.085938 217.894531 191.085938 217.894531 191.082031 L 218.1875 190.863281 C 218.390625 190.710938 218.609375 190.546875 218.800781 190.394531 L 218.851562 190.359375 C 218.859375 190.351562 218.867188 190.34375 218.875 190.339844 L 218.984375 190.253906 C 219.234375 190.058594 219.285156 189.699219 219.097656 189.441406 C 219.019531 189.335938 218.917969 189.265625 218.800781 189.230469 C 219.660156 188.480469 220.515625 187.707031 221.359375 186.90625 C 221.347656 187.128906 221.453125 187.347656 221.652344 187.460938 C 221.742188 187.511719 221.84375 187.535156 221.945312 187.535156 C 222.09375 187.535156 222.242188 187.480469 222.355469 187.371094 L 222.421875 187.308594 C 222.433594 187.300781 222.441406 187.292969 222.449219 187.289062 C 222.554688 187.1875 222.675781 187.074219 222.796875 186.953125 C 222.96875 186.792969 223.140625 186.628906 223.28125 186.488281 C 223.496094 186.28125 223.753906 186.015625 223.992188 185.777344 L 224.230469 185.535156 C 224.238281 185.523438 224.246094 185.515625 224.253906 185.507812 L 224.328125 185.433594 C 224.519531 185.234375 224.546875 184.925781 224.394531 184.695312 C 224.273438 184.519531 224.070312 184.421875 223.867188 184.433594 C 224.699219 183.574219 225.507812 182.710938 226.285156 181.839844 C 226.320312 181.953125 226.386719 182.0625 226.492188 182.140625 C 226.601562 182.222656 226.726562 182.261719 226.851562 182.261719 C 227.027344 182.261719 227.203125 182.183594 227.320312 182.035156 L 227.394531 181.9375 C 227.40625 181.925781 227.414062 181.914062 227.425781 181.902344 L 228.066406 181.082031 C 228.308594 180.769531 228.597656 180.371094 228.851562 180.015625 L 229.15625 179.597656 C 229.164062 179.589844 229.171875 179.578125 229.175781 179.566406 L 229.273438 179.4375 C 229.289062 179.414062 229.304688 179.386719 229.316406 179.363281 C 230.003906 178.015625 230.101562 177.824219 230.125 177.152344 C 231.832031 174.875 233.164062 172.769531 234.101562 170.875 C 234.148438 170.828125 234.191406 170.773438 234.21875 170.707031 L 234.328125 170.457031 C 234.328125 170.453125 234.332031 170.445312 234.335938 170.4375 L 234.46875 170.128906 C 234.472656 170.125 234.472656 170.117188 234.476562 170.113281 L 234.632812 169.738281 C 234.632812 169.734375 234.636719 169.730469 234.636719 169.726562 L 234.679688 169.621094 L 234.691406 169.59375 C 234.695312 169.585938 234.699219 169.578125 234.699219 169.570312 L 234.792969 169.34375 C 234.796875 169.332031 234.800781 169.324219 234.804688 169.316406 C 234.851562 169.203125 234.898438 169.089844 234.949219 168.964844 C 235.980469 166.226562 236.269531 165.332031 236.882812 163.003906 C 237.003906 162.546875 237.136719 162.046875 237.28125 161.484375 C 237.28125 161.476562 237.28125 161.472656 237.285156 161.464844 C 237.285156 161.460938 237.289062 161.457031 237.289062 161.449219 C 237.6875 159.5625 237.90625 158.421875 238.078125 157.074219 C 238.289062 155.6875 238.414062 154.421875 238.5 152.835938 C 238.5 152.835938 238.5 152.832031 238.5 152.832031 C 238.5 152.832031 238.5 152.828125 238.5 152.824219 L 238.558594 151.386719 L 238.554688 151.234375 L 238.566406 150.90625 C 238.570312 150.894531 238.570312 150.882812 238.566406 150.867188 " fill-opacity="1" fill-rule="nonzero"/></g><path fill="#183c5d" d="M 192.097656 134.957031 C 192.097656 137.972656 189.644531 140.417969 186.617188 140.417969 C 183.589844 140.417969 181.136719 137.972656 181.136719 134.957031 C 181.136719 131.941406 183.589844 129.5 186.617188 129.5 C 189.644531 129.5 192.097656 131.941406 192.097656 134.957031 " fill-opacity="1" fill-rule="nonzero"/><path fill="#183c5d" d="M 218.789062 143.886719 C 218.789062 146.902344 216.332031 149.347656 213.304688 149.347656 C 210.277344 149.347656 207.824219 146.902344 207.824219 143.886719 C 207.824219 140.871094 210.277344 138.429688 213.304688 138.429688 C 216.332031 138.429688 218.789062 140.871094 218.789062 143.886719 " fill-opacity="1" fill-rule="nonzero"/><path fill="#183c5d" d="M 226.6875 168.335938 C 226.6875 171.351562 224.234375 173.796875 221.207031 173.796875 C 218.175781 173.796875 215.722656 171.351562 215.722656 168.335938 C 215.722656 165.324219 218.175781 162.878906 221.207031 162.878906 C 224.234375 162.878906 226.6875 165.324219 226.6875 168.335938 " fill-opacity="1" fill-rule="nonzero"/><path fill="#183c5d" d="M 202.261719 160.027344 C 202.261719 163.042969 199.808594 165.488281 196.78125 165.488281 C 193.753906 165.488281 191.300781 163.042969 191.300781 160.027344 C 191.300781 157.015625 193.753906 154.570312 196.78125 154.570312 C 199.808594 154.570312 202.261719 157.015625 202.261719 160.027344 " fill-opacity="1" fill-rule="nonzero"/><path fill="#183c5d" d="M 212.296875 181.289062 C 212.296875 184.304688 209.84375 186.75 206.816406 186.75 C 203.789062 186.75 201.335938 184.304688 201.335938 181.289062 C 201.335938 178.277344 203.789062 175.832031 206.816406 175.832031 C 209.84375 175.832031 212.296875 178.277344 212.296875 181.289062 " fill-opacity="1" fill-rule="nonzero"/><path fill="#183c5d" d="M 202.714844 119.164062 C 202.714844 121.074219 201.160156 122.625 199.238281 122.625 C 197.320312 122.625 195.765625 121.074219 195.765625 119.164062 C 195.765625 117.253906 197.320312 115.707031 199.238281 115.707031 C 201.160156 115.707031 202.714844 117.253906 202.714844 119.164062 " fill-opacity="1" fill-rule="nonzero"/><path fill="#183c5d" d="M 226.960938 128 C 226.960938 129.910156 225.40625 131.457031 223.484375 131.457031 C 221.566406 131.457031 220.011719 129.910156 220.011719 128 C 220.011719 126.089844 221.566406 124.539062 223.484375 124.539062 C 225.40625 124.539062 226.960938 126.089844 226.960938 128 " fill-opacity="1" fill-rule="nonzero"/><path fill="#183c5d" d="M 235.710938 154.789062 C 235.710938 156.699219 234.160156 158.246094 232.238281 158.246094 C 230.320312 158.246094 228.765625 156.699219 228.765625 154.789062 C 228.765625 152.878906 230.320312 151.328125 232.238281 151.328125 C 234.160156 151.328125 235.710938 152.878906 235.710938 154.789062 " fill-opacity="1" fill-rule="nonzero"/><path fill="#183c5d" d="M 174.867188 150.996094 C 174.867188 152.90625 173.3125 154.457031 171.394531 154.457031 C 169.476562 154.457031 167.917969 152.90625 167.917969 150.996094 C 167.917969 149.085938 169.476562 147.539062 171.394531 147.539062 C 173.3125 147.539062 174.867188 149.085938 174.867188 150.996094 " fill-opacity="1" fill-rule="nonzero"/><path fill="#183c5d" d="M 183.195312 176.9375 C 183.195312 178.847656 181.636719 180.394531 179.71875 180.394531 C 177.800781 180.394531 176.246094 178.847656 176.246094 176.9375 C 176.246094 175.023438 177.800781 173.476562 179.71875 173.476562 C 181.636719 173.476562 183.195312 175.023438 183.195312 176.9375 " fill-opacity="1" fill-rule="nonzero"/><path fill="#183c5d" d="M 194.183594 194.519531 C 194.183594 196.429688 192.625 197.976562 190.707031 197.976562 C 188.789062 197.976562 187.234375 196.429688 187.234375 194.519531 C 187.234375 192.605469 188.789062 191.058594 190.707031 191.058594 C 192.625 191.058594 194.183594 192.605469 194.183594 194.519531 " fill-opacity="1" fill-rule="nonzero"/><path fill="#183c5d" d="M 206.574219 107.882812 C 206.574219 109.070312 205.609375 110.03125 204.417969 110.03125 C 203.226562 110.03125 202.261719 109.070312 202.261719 107.882812 C 202.261719 106.699219 203.226562 105.738281 204.417969 105.738281 C 205.609375 105.738281 206.574219 106.699219 206.574219 107.882812 " fill-opacity="1" fill-rule="nonzero"/><path fill="#183c5d" d="M 228.351562 117.453125 C 228.351562 118.636719 227.386719 119.597656 226.195312 119.597656 C 225.003906 119.597656 224.042969 118.636719 224.042969 117.453125 C 224.042969 116.265625 225.003906 115.304688 226.195312 115.304688 C 227.386719 115.304688 228.351562 116.265625 228.351562 117.453125 " fill-opacity="1" fill-rule="nonzero"/><g clip-path="url(#7d8c564d47)"><path fill="#183c5d" d="M 239.667969 143.886719 C 239.667969 145.074219 238.703125 146.035156 237.511719 146.035156 C 236.320312 146.035156 235.359375 145.074219 235.359375 143.886719 C 235.359375 142.703125 236.320312 141.742188 237.511719 141.742188 C 238.703125 141.742188 239.667969 142.703125 239.667969 143.886719 " fill-opacity="1" fill-rule="nonzero"/></g><path fill="#183c5d" d="M 158.507812 161.710938 C 158.507812 162.894531 157.542969 163.855469 156.355469 163.855469 C 155.164062 163.855469 154.199219 162.894531 154.199219 161.710938 C 154.199219 160.523438 155.164062 159.5625 156.355469 159.5625 C 157.542969 159.5625 158.507812 160.523438 158.507812 161.710938 " fill-opacity="1" fill-rule="nonzero"/><path fill="#183c5d" d="M 165.980469 185.945312 C 165.980469 187.132812 165.015625 188.09375 163.828125 188.09375 C 162.636719 188.09375 161.671875 187.132812 161.671875 185.945312 C 161.671875 184.761719 162.636719 183.800781 163.828125 183.800781 C 165.015625 183.800781 165.980469 184.761719 165.980469 185.945312 " fill-opacity="1" fill-rule="nonzero"/><g clip-path="url(#70391008c5)"><path fill="#183c5d" d="M 180.023438 199.804688 C 180.023438 200.988281 179.058594 201.949219 177.867188 201.949219 C 176.679688 201.949219 175.714844 200.988281 175.714844 199.804688 C 175.714844 198.617188 176.679688 197.660156 177.867188 197.660156 C 179.058594 197.660156 180.023438 198.617188 180.023438 199.804688 " fill-opacity="1" fill-rule="nonzero"/></g><path fill="#183c5d" d="M 146.855469 167.027344 C 146.855469 168.210938 145.890625 169.171875 144.703125 169.171875 C 143.511719 169.171875 142.546875 168.210938 142.546875 167.027344 C 142.546875 165.839844 143.511719 164.882812 144.703125 164.882812 C 145.890625 164.882812 146.855469 165.839844 146.855469 167.027344 " fill-opacity="1" fill-rule="nonzero"/><path fill="#183c5d" d="M 154.542969 188.09375 C 154.542969 189.277344 153.578125 190.238281 152.386719 190.238281 C 151.199219 190.238281 150.234375 189.277344 150.234375 188.09375 C 150.234375 186.90625 151.199219 185.945312 152.386719 185.945312 C 153.578125 185.945312 154.542969 186.90625 154.542969 188.09375 " fill-opacity="1" fill-rule="nonzero"/><g fill="#183c5d" fill-opacity="1"><g transform="translate(78.950777, 243.269077)"><g><path d="M 20.640625 0 L 6.890625 -19.390625 L 6.890625 -4.15625 C 6.890625 -3.65625 6.9375 -3.253906 7.03125 -2.953125 C 7.132812 -2.660156 7.265625 -2.429688 7.421875 -2.265625 C 7.585938 -2.109375 7.78125 -2.003906 8 -1.953125 C 8.226562 -1.898438 8.460938 -1.875 8.703125 -1.875 L 10.1875 -1.875 L 10.1875 0 L 0.984375 0 L 0.984375 -1.875 L 2.453125 -1.875 C 2.710938 -1.875 2.945312 -1.898438 3.15625 -1.953125 C 3.375 -2.003906 3.566406 -2.109375 3.734375 -2.265625 C 3.898438 -2.429688 4.03125 -2.660156 4.125 -2.953125 C 4.21875 -3.253906 4.265625 -3.65625 4.265625 -4.15625 L 4.265625 -21.140625 C 4.265625 -21.609375 4.210938 -21.984375 4.109375 -22.265625 C 4.015625 -22.546875 3.882812 -22.757812 3.71875 -22.90625 C 3.550781 -23.050781 3.359375 -23.148438 3.140625 -23.203125 C 2.921875 -23.253906 2.691406 -23.28125 2.453125 -23.28125 L 0.984375 -23.28125 L 0.984375 -25.140625 L 8.8125 -25.140625 L 21.234375 -7.5625 L 21.234375 -21.140625 C 21.234375 -21.609375 21.1875 -21.984375 21.09375 -22.265625 C 21 -22.546875 20.867188 -22.757812 20.703125 -22.90625 C 20.535156 -23.050781 20.34375 -23.148438 20.125 -23.203125 C 19.90625 -23.253906 19.675781 -23.28125 19.4375 -23.28125 L 17.953125 -23.28125 L 17.953125 -25.140625 L 27.15625 -25.140625 L 27.15625 -23.28125 L 25.671875 -23.28125 C 25.429688 -23.28125 25.203125 -23.253906 24.984375 -23.203125 C 24.765625 -23.148438 24.570312 -23.039062 24.40625 -22.875 C 24.238281 -22.71875 24.109375 -22.488281 24.015625 -22.1875 C 23.929688 -21.894531 23.890625 -21.5 23.890625 -21 L 23.890625 0 Z M 20.640625 0 "/></g></g></g><g fill="#183c5d" fill-opacity="1"><g transform="translate(106.693863, 243.269077)"><g><path d="M 10.453125 -17.046875 C 9.472656 -17.046875 8.691406 -16.554688 8.109375 -15.578125 C 7.523438 -14.609375 7.207031 -13.179688 7.15625 -11.296875 L 13.234375 -11.296875 C 13.234375 -12.191406 13.179688 -12.992188 13.078125 -13.703125 C 12.984375 -14.410156 12.820312 -15.007812 12.59375 -15.5 C 12.375 -16 12.085938 -16.378906 11.734375 -16.640625 C 11.390625 -16.910156 10.960938 -17.046875 10.453125 -17.046875 Z M 10.78125 0.34375 C 9.289062 0.34375 7.972656 0.125 6.828125 -0.3125 C 5.691406 -0.75 4.738281 -1.378906 3.96875 -2.203125 C 3.195312 -3.023438 2.617188 -4.035156 2.234375 -5.234375 C 1.847656 -6.429688 1.65625 -7.800781 1.65625 -9.34375 C 1.65625 -10.988281 1.847656 -12.4375 2.234375 -13.6875 C 2.617188 -14.9375 3.1875 -15.976562 3.9375 -16.8125 C 4.6875 -17.65625 5.601562 -18.285156 6.6875 -18.703125 C 7.769531 -19.117188 9.003906 -19.328125 10.390625 -19.328125 C 11.660156 -19.328125 12.804688 -19.144531 13.828125 -18.78125 C 14.847656 -18.425781 15.710938 -17.890625 16.421875 -17.171875 C 17.128906 -16.460938 17.671875 -15.582031 18.046875 -14.53125 C 18.429688 -13.476562 18.625 -12.25 18.625 -10.84375 L 18.625 -9.046875 L 7.078125 -9.046875 C 7.117188 -7.867188 7.25 -6.851562 7.46875 -6 C 7.695312 -5.15625 8.007812 -4.457031 8.40625 -3.90625 C 8.800781 -3.351562 9.28125 -2.941406 9.84375 -2.671875 C 10.414062 -2.410156 11.066406 -2.28125 11.796875 -2.28125 C 12.398438 -2.28125 12.957031 -2.351562 13.46875 -2.5 C 13.988281 -2.644531 14.457031 -2.84375 14.875 -3.09375 C 15.300781 -3.351562 15.671875 -3.660156 15.984375 -4.015625 C 16.296875 -4.367188 16.554688 -4.742188 16.765625 -5.140625 C 17.398438 -4.796875 17.71875 -4.222656 17.71875 -3.421875 C 17.71875 -2.921875 17.578125 -2.441406 17.296875 -1.984375 C 17.023438 -1.535156 16.601562 -1.140625 16.03125 -0.796875 C 15.457031 -0.453125 14.738281 -0.175781 13.875 0.03125 C 13.007812 0.238281 11.976562 0.34375 10.78125 0.34375 Z M 10.78125 0.34375 "/></g></g></g><g fill="#183c5d" fill-opacity="1"><g transform="translate(126.787834, 243.269077)"><g><path d="M 15.328125 -15.953125 C 15.328125 -16.378906 15.160156 -16.660156 14.828125 -16.796875 C 14.503906 -16.929688 14.066406 -17 13.515625 -17 L 13.40625 -17 L 13.40625 -18.875 L 21.546875 -18.875 L 21.546875 -17 L 21.234375 -17 C 20.890625 -17 20.582031 -16.96875 20.3125 -16.90625 C 20.039062 -16.84375 19.769531 -16.726562 19.5 -16.5625 C 19.238281 -16.394531 18.960938 -16.164062 18.671875 -15.875 C 18.390625 -15.582031 18.054688 -15.207031 17.671875 -14.75 L 14.046875 -10.3125 L 19.21875 -3.734375 C 19.757812 -3.054688 20.253906 -2.578125 20.703125 -2.296875 C 21.160156 -2.015625 21.609375 -1.875 22.046875 -1.875 L 22.515625 -1.875 L 22.515625 0 L 11.296875 0 L 11.296875 -1.875 L 11.484375 -1.875 C 12.898438 -1.875 13.609375 -2.257812 13.609375 -3.03125 C 13.609375 -3.164062 13.585938 -3.300781 13.546875 -3.4375 C 13.515625 -3.570312 13.453125 -3.734375 13.359375 -3.921875 C 13.265625 -4.109375 13.128906 -4.320312 12.953125 -4.5625 C 12.773438 -4.8125 12.546875 -5.109375 12.265625 -5.453125 L 10.25 -7.890625 L 7.796875 -4.828125 C 7.578125 -4.546875 7.394531 -4.253906 7.25 -3.953125 C 7.113281 -3.660156 7.046875 -3.363281 7.046875 -3.0625 C 7.046875 -2.664062 7.210938 -2.367188 7.546875 -2.171875 C 7.878906 -1.972656 8.441406 -1.875 9.234375 -1.875 L 9.34375 -1.875 L 9.34375 0 L 0.390625 0 L 0.390625 -1.875 L 0.703125 -1.875 C 1.128906 -1.875 1.5 -1.910156 1.8125 -1.984375 C 2.132812 -2.054688 2.4375 -2.175781 2.71875 -2.34375 C 3 -2.519531 3.28125 -2.75 3.5625 -3.03125 C 3.851562 -3.320312 4.179688 -3.6875 4.546875 -4.125 L 8.984375 -9.46875 L 4.546875 -15.15625 C 4.046875 -15.769531 3.550781 -16.226562 3.0625 -16.53125 C 2.570312 -16.84375 2.054688 -17 1.515625 -17 L 1.046875 -17 L 1.046875 -18.875 L 12.125 -18.875 L 12.125 -17 L 12 -17 C 11.601562 -17 11.273438 -16.972656 11.015625 -16.921875 C 10.753906 -16.878906 10.550781 -16.8125 10.40625 -16.71875 C 10.257812 -16.625 10.15625 -16.515625 10.09375 -16.390625 C 10.039062 -16.265625 10.015625 -16.132812 10.015625 -16 C 10.015625 -15.738281 10.078125 -15.488281 10.203125 -15.25 C 10.328125 -15.019531 10.53125 -14.726562 10.8125 -14.375 L 12.78125 -11.96875 L 14.4375 -13.984375 C 14.71875 -14.335938 14.9375 -14.675781 15.09375 -15 C 15.25 -15.320312 15.328125 -15.640625 15.328125 -15.953125 Z M 15.328125 -15.953125 "/></g></g></g><g fill="#183c5d" fill-opacity="1"><g transform="translate(149.528914, 243.269077)"><g><path d="M 7.046875 -5.25 C 7.046875 -4.238281 7.207031 -3.476562 7.53125 -2.96875 C 7.851562 -2.46875 8.359375 -2.21875 9.046875 -2.21875 C 9.546875 -2.21875 10 -2.320312 10.40625 -2.53125 C 10.8125 -2.75 11.160156 -3.050781 11.453125 -3.4375 C 11.753906 -3.832031 11.976562 -4.304688 12.125 -4.859375 C 12.28125 -5.410156 12.359375 -6.03125 12.359375 -6.71875 L 12.359375 -9.375 L 10.78125 -9.265625 C 10.082031 -9.234375 9.488281 -9.125 9 -8.9375 C 8.519531 -8.75 8.132812 -8.488281 7.84375 -8.15625 C 7.5625 -7.820312 7.359375 -7.410156 7.234375 -6.921875 C 7.109375 -6.441406 7.046875 -5.882812 7.046875 -5.25 Z M 10.1875 -17.171875 C 9.738281 -17.171875 9.359375 -17.078125 9.046875 -16.890625 C 8.742188 -16.703125 8.5 -16.4375 8.3125 -16.09375 C 8.132812 -15.757812 8.007812 -15.359375 7.9375 -14.890625 C 7.863281 -14.429688 7.828125 -13.925781 7.828125 -13.375 C 6.242188 -13.375 5.050781 -13.550781 4.25 -13.90625 C 3.457031 -14.257812 3.0625 -14.867188 3.0625 -15.734375 C 3.0625 -16.378906 3.253906 -16.929688 3.640625 -17.390625 C 4.023438 -17.847656 4.546875 -18.21875 5.203125 -18.5 C 5.859375 -18.789062 6.625 -19 7.5 -19.125 C 8.382812 -19.257812 9.320312 -19.328125 10.3125 -19.328125 C 11.550781 -19.328125 12.628906 -19.21875 13.546875 -19 C 14.472656 -18.789062 15.242188 -18.453125 15.859375 -17.984375 C 16.472656 -17.515625 16.9375 -16.898438 17.25 -16.140625 C 17.5625 -15.378906 17.71875 -14.445312 17.71875 -13.34375 L 17.71875 -4.375 C 17.71875 -3.882812 17.753906 -3.476562 17.828125 -3.15625 C 17.898438 -2.84375 18.015625 -2.585938 18.171875 -2.390625 C 18.335938 -2.203125 18.554688 -2.066406 18.828125 -1.984375 C 19.109375 -1.910156 19.441406 -1.875 19.828125 -1.875 L 19.96875 -1.875 L 19.96875 0 L 13.40625 0 L 12.671875 -2.421875 L 12.359375 -2.421875 C 11.972656 -1.953125 11.609375 -1.539062 11.265625 -1.1875 C 10.921875 -0.84375 10.550781 -0.554688 10.15625 -0.328125 C 9.769531 -0.0976562 9.332031 0.0664062 8.84375 0.171875 C 8.351562 0.285156 7.78125 0.34375 7.125 0.34375 C 6.34375 0.34375 5.613281 0.226562 4.9375 0 C 4.269531 -0.226562 3.6875 -0.578125 3.1875 -1.046875 C 2.6875 -1.523438 2.289062 -2.125 2 -2.84375 C 1.71875 -3.5625 1.578125 -4.40625 1.578125 -5.375 C 1.578125 -7.289062 2.234375 -8.707031 3.546875 -9.625 C 4.859375 -10.539062 6.832031 -11.039062 9.46875 -11.125 L 12.359375 -11.234375 L 12.359375 -13.171875 C 12.359375 -13.753906 12.335938 -14.289062 12.296875 -14.78125 C 12.253906 -15.28125 12.15625 -15.707031 12 -16.0625 C 11.851562 -16.414062 11.632812 -16.6875 11.34375 -16.875 C 11.050781 -17.070312 10.664062 -17.171875 10.1875 -17.171875 Z M 10.1875 -17.171875 "/></g></g></g><g fill="#183c5d" fill-opacity="1"><g transform="translate(170.619847, 243.269077)"><g><path d="M 9.296875 0.34375 C 7.722656 0.34375 6.40625 0.195312 5.34375 -0.09375 C 4.289062 -0.394531 3.445312 -0.78125 2.8125 -1.25 C 2.175781 -1.71875 1.722656 -2.242188 1.453125 -2.828125 C 1.179688 -3.421875 1.046875 -4.003906 1.046875 -4.578125 C 1.046875 -5.179688 1.15625 -5.6875 1.375 -6.09375 C 1.601562 -6.507812 1.90625 -6.847656 2.28125 -7.109375 C 2.65625 -7.378906 3.078125 -7.570312 3.546875 -7.6875 C 4.023438 -7.800781 4.519531 -7.859375 5.03125 -7.859375 C 5.03125 -6.847656 5.148438 -5.960938 5.390625 -5.203125 C 5.640625 -4.441406 5.972656 -3.804688 6.390625 -3.296875 C 6.816406 -2.785156 7.328125 -2.398438 7.921875 -2.140625 C 8.515625 -1.878906 9.160156 -1.75 9.859375 -1.75 C 10.546875 -1.75 11.15625 -1.847656 11.6875 -2.046875 C 12.226562 -2.242188 12.6875 -2.515625 13.0625 -2.859375 C 13.445312 -3.203125 13.734375 -3.601562 13.921875 -4.0625 C 14.117188 -4.53125 14.21875 -5.035156 14.21875 -5.578125 C 14.21875 -6.171875 14.097656 -6.695312 13.859375 -7.15625 C 13.617188 -7.625 13.253906 -8.054688 12.765625 -8.453125 C 12.273438 -8.847656 11.660156 -9.222656 10.921875 -9.578125 C 10.179688 -9.941406 9.320312 -10.332031 8.34375 -10.75 C 7.113281 -11.25 6.078125 -11.765625 5.234375 -12.296875 C 4.390625 -12.835938 3.707031 -13.414062 3.1875 -14.03125 C 2.675781 -14.65625 2.304688 -15.328125 2.078125 -16.046875 C 1.859375 -16.765625 1.75 -17.554688 1.75 -18.421875 C 1.75 -19.492188 1.96875 -20.460938 2.40625 -21.328125 C 2.84375 -22.203125 3.441406 -22.945312 4.203125 -23.5625 C 4.972656 -24.1875 5.882812 -24.664062 6.9375 -25 C 8 -25.332031 9.148438 -25.5 10.390625 -25.5 C 11.679688 -25.5 12.796875 -25.390625 13.734375 -25.171875 C 14.679688 -24.960938 15.457031 -24.675781 16.0625 -24.3125 C 16.675781 -23.945312 17.132812 -23.515625 17.4375 -23.015625 C 17.738281 -22.515625 17.890625 -21.976562 17.890625 -21.40625 C 17.890625 -21 17.796875 -20.613281 17.609375 -20.25 C 17.429688 -19.894531 17.160156 -19.585938 16.796875 -19.328125 C 16.441406 -19.066406 15.992188 -18.859375 15.453125 -18.703125 C 14.910156 -18.554688 14.273438 -18.484375 13.546875 -18.484375 C 13.546875 -18.972656 13.476562 -19.5 13.34375 -20.0625 C 13.21875 -20.632812 13.003906 -21.164062 12.703125 -21.65625 C 12.410156 -22.144531 12.023438 -22.550781 11.546875 -22.875 C 11.066406 -23.195312 10.488281 -23.359375 9.8125 -23.359375 C 9.34375 -23.359375 8.894531 -23.285156 8.46875 -23.140625 C 8.050781 -23.003906 7.679688 -22.796875 7.359375 -22.515625 C 7.046875 -22.242188 6.796875 -21.90625 6.609375 -21.5 C 6.429688 -21.09375 6.34375 -20.628906 6.34375 -20.109375 C 6.34375 -19.609375 6.421875 -19.140625 6.578125 -18.703125 C 6.742188 -18.273438 7.039062 -17.847656 7.46875 -17.421875 C 7.894531 -17.003906 8.484375 -16.585938 9.234375 -16.171875 C 9.992188 -15.753906 10.96875 -15.304688 12.15625 -14.828125 C 13.363281 -14.328125 14.390625 -13.816406 15.234375 -13.296875 C 16.085938 -12.785156 16.785156 -12.234375 17.328125 -11.640625 C 17.867188 -11.054688 18.257812 -10.410156 18.5 -9.703125 C 18.75 -9.003906 18.875 -8.222656 18.875 -7.359375 C 18.875 -6.222656 18.648438 -5.179688 18.203125 -4.234375 C 17.765625 -3.285156 17.125 -2.472656 16.28125 -1.796875 C 15.445312 -1.128906 14.441406 -0.601562 13.265625 -0.21875 C 12.085938 0.15625 10.765625 0.34375 9.296875 0.34375 Z M 9.296875 0.34375 "/></g></g></g><g fill="#183c5d" fill-opacity="1"><g transform="translate(191.246676, 243.269077)"><g><path d="M 0.875 6.59375 C 1.132812 6.59375 1.410156 6.566406 1.703125 6.515625 C 2.003906 6.460938 2.273438 6.351562 2.515625 6.1875 C 2.765625 6.03125 2.972656 5.800781 3.140625 5.5 C 3.304688 5.207031 3.390625 4.804688 3.390625 4.296875 L 3.390625 -14.546875 C 3.390625 -15.085938 3.328125 -15.515625 3.203125 -15.828125 C 3.085938 -16.148438 2.921875 -16.394531 2.703125 -16.5625 C 2.492188 -16.738281 2.242188 -16.851562 1.953125 -16.90625 C 1.660156 -16.96875 1.347656 -17 1.015625 -17 L 0.78125 -17 L 0.78125 -18.875 L 7.671875 -18.875 L 8.3125 -16.125 L 8.453125 -16.125 C 8.710938 -16.582031 9.007812 -17 9.34375 -17.375 C 9.6875 -17.757812 10.078125 -18.085938 10.515625 -18.359375 C 10.953125 -18.640625 11.445312 -18.851562 12 -19 C 12.550781 -19.144531 13.164062 -19.21875 13.84375 -19.21875 C 15.007812 -19.21875 16.039062 -19.023438 16.9375 -18.640625 C 17.84375 -18.265625 18.597656 -17.671875 19.203125 -16.859375 C 19.816406 -16.054688 20.28125 -15.035156 20.59375 -13.796875 C 20.90625 -12.554688 21.0625 -11.082031 21.0625 -9.375 C 21.0625 -7.675781 20.90625 -6.207031 20.59375 -4.96875 C 20.289062 -3.738281 19.835938 -2.722656 19.234375 -1.921875 C 18.628906 -1.117188 17.890625 -0.523438 17.015625 -0.140625 C 16.140625 0.242188 15.128906 0.4375 13.984375 0.4375 C 12.640625 0.4375 11.546875 0.179688 10.703125 -0.328125 C 9.867188 -0.835938 9.203125 -1.523438 8.703125 -2.390625 L 8.453125 -2.390625 C 8.503906 -1.847656 8.550781 -1.320312 8.59375 -0.8125 C 8.632812 -0.375 8.664062 0.0859375 8.6875 0.578125 C 8.71875 1.078125 8.734375 1.507812 8.734375 1.875 L 8.734375 4.296875 C 8.734375 4.804688 8.816406 5.207031 8.984375 5.5 C 9.148438 5.800781 9.351562 6.03125 9.59375 6.1875 C 9.84375 6.351562 10.113281 6.460938 10.40625 6.515625 C 10.695312 6.566406 10.972656 6.59375 11.234375 6.59375 L 12 6.59375 L 12 8.453125 L 0.46875 8.453125 L 0.46875 6.59375 Z M 12.328125 -2.1875 C 13.503906 -2.1875 14.347656 -2.78125 14.859375 -3.96875 C 15.367188 -5.15625 15.625 -6.945312 15.625 -9.34375 C 15.625 -11.675781 15.367188 -13.46875 14.859375 -14.71875 C 14.347656 -15.96875 13.515625 -16.59375 12.359375 -16.59375 C 11.660156 -16.59375 11.078125 -16.4375 10.609375 -16.125 C 10.140625 -15.8125 9.765625 -15.347656 9.484375 -14.734375 C 9.210938 -14.117188 9.019531 -13.359375 8.90625 -12.453125 C 8.789062 -11.554688 8.734375 -10.53125 8.734375 -9.375 C 8.734375 -8.15625 8.789062 -7.09375 8.90625 -6.1875 C 9.019531 -5.289062 9.210938 -4.546875 9.484375 -3.953125 C 9.765625 -3.359375 10.132812 -2.914062 10.59375 -2.625 C 11.050781 -2.332031 11.628906 -2.1875 12.328125 -2.1875 Z M 12.328125 -2.1875 "/></g></g></g><g fill="#183c5d" fill-opacity="1"><g transform="translate(213.953378, 243.269077)"><g><path d="M 14.75 0 L 14.75 -11.59375 C 14.75 -12.34375 14.703125 -13.015625 14.609375 -13.609375 C 14.515625 -14.203125 14.351562 -14.695312 14.125 -15.09375 C 13.90625 -15.5 13.613281 -15.804688 13.25 -16.015625 C 12.882812 -16.234375 12.445312 -16.34375 11.9375 -16.34375 C 11.351562 -16.34375 10.863281 -16.191406 10.46875 -15.890625 C 10.082031 -15.585938 9.769531 -15.1875 9.53125 -14.6875 C 9.300781 -14.195312 9.132812 -13.617188 9.03125 -12.953125 C 8.925781 -12.296875 8.875 -11.609375 8.875 -10.890625 L 8.875 -4.15625 C 8.875 -3.664062 8.929688 -3.269531 9.046875 -2.96875 C 9.171875 -2.675781 9.34375 -2.445312 9.5625 -2.28125 C 9.78125 -2.113281 10.046875 -2.003906 10.359375 -1.953125 C 10.671875 -1.898438 11.023438 -1.875 11.421875 -1.875 L 11.515625 -1.875 L 11.515625 0 L 0.703125 0 L 0.703125 -1.875 L 0.78125 -1.875 C 1.175781 -1.875 1.539062 -1.898438 1.875 -1.953125 C 2.207031 -2.003906 2.492188 -2.113281 2.734375 -2.28125 C 2.984375 -2.457031 3.175781 -2.707031 3.3125 -3.03125 C 3.457031 -3.351562 3.53125 -3.773438 3.53125 -4.296875 L 3.53125 -22.75 C 3.53125 -23.21875 3.445312 -23.59375 3.28125 -23.875 C 3.113281 -24.15625 2.898438 -24.375 2.640625 -24.53125 C 2.390625 -24.6875 2.117188 -24.785156 1.828125 -24.828125 C 1.535156 -24.878906 1.265625 -24.90625 1.015625 -24.90625 L 0.609375 -24.90625 L 0.609375 -26.765625 L 8.875 -26.765625 L 8.875 -20.96875 C 8.875 -20.507812 8.859375 -20.015625 8.828125 -19.484375 C 8.796875 -18.953125 8.765625 -18.460938 8.734375 -18.015625 C 8.691406 -17.492188 8.644531 -16.976562 8.59375 -16.46875 L 8.90625 -16.46875 C 9.257812 -17.132812 9.632812 -17.65625 10.03125 -18.03125 C 10.425781 -18.414062 10.847656 -18.703125 11.296875 -18.890625 C 11.742188 -19.078125 12.21875 -19.195312 12.71875 -19.25 C 13.21875 -19.300781 13.742188 -19.328125 14.296875 -19.328125 C 15.203125 -19.328125 16.015625 -19.191406 16.734375 -18.921875 C 17.453125 -18.660156 18.0625 -18.253906 18.5625 -17.703125 C 19.0625 -17.160156 19.441406 -16.460938 19.703125 -15.609375 C 19.972656 -14.753906 20.109375 -13.726562 20.109375 -12.53125 L 20.109375 -4.375 C 20.109375 -3.820312 20.15625 -3.378906 20.25 -3.046875 C 20.34375 -2.722656 20.488281 -2.472656 20.6875 -2.296875 C 20.882812 -2.128906 21.128906 -2.015625 21.421875 -1.953125 C 21.722656 -1.898438 22.070312 -1.875 22.46875 -1.875 L 22.578125 -1.875 L 22.578125 0 Z M 14.75 0 "/></g></g></g><g fill="#183c5d" fill-opacity="1"><g transform="translate(237.433586, 243.269077)"><g><path d="M 10.453125 -17.046875 C 9.472656 -17.046875 8.691406 -16.554688 8.109375 -15.578125 C 7.523438 -14.609375 7.207031 -13.179688 7.15625 -11.296875 L 13.234375 -11.296875 C 13.234375 -12.191406 13.179688 -12.992188 13.078125 -13.703125 C 12.984375 -14.410156 12.820312 -15.007812 12.59375 -15.5 C 12.375 -16 12.085938 -16.378906 11.734375 -16.640625 C 11.390625 -16.910156 10.960938 -17.046875 10.453125 -17.046875 Z M 10.78125 0.34375 C 9.289062 0.34375 7.972656 0.125 6.828125 -0.3125 C 5.691406 -0.75 4.738281 -1.378906 3.96875 -2.203125 C 3.195312 -3.023438 2.617188 -4.035156 2.234375 -5.234375 C 1.847656 -6.429688 1.65625 -7.800781 1.65625 -9.34375 C 1.65625 -10.988281 1.847656 -12.4375 2.234375 -13.6875 C 2.617188 -14.9375 3.1875 -15.976562 3.9375 -16.8125 C 4.6875 -17.65625 5.601562 -18.285156 6.6875 -18.703125 C 7.769531 -19.117188 9.003906 -19.328125 10.390625 -19.328125 C 11.660156 -19.328125 12.804688 -19.144531 13.828125 -18.78125 C 14.847656 -18.425781 15.710938 -17.890625 16.421875 -17.171875 C 17.128906 -16.460938 17.671875 -15.582031 18.046875 -14.53125 C 18.429688 -13.476562 18.625 -12.25 18.625 -10.84375 L 18.625 -9.046875 L 7.078125 -9.046875 C 7.117188 -7.867188 7.25 -6.851562 7.46875 -6 C 7.695312 -5.15625 8.007812 -4.457031 8.40625 -3.90625 C 8.800781 -3.351562 9.28125 -2.941406 9.84375 -2.671875 C 10.414062 -2.410156 11.066406 -2.28125 11.796875 -2.28125 C 12.398438 -2.28125 12.957031 -2.351562 13.46875 -2.5 C 13.988281 -2.644531 14.457031 -2.84375 14.875 -3.09375 C 15.300781 -3.351562 15.671875 -3.660156 15.984375 -4.015625 C 16.296875 -4.367188 16.554688 -4.742188 16.765625 -5.140625 C 17.398438 -4.796875 17.71875 -4.222656 17.71875 -3.421875 C 17.71875 -2.921875 17.578125 -2.441406 17.296875 -1.984375 C 17.023438 -1.535156 16.601562 -1.140625 16.03125 -0.796875 C 15.457031 -0.453125 14.738281 -0.175781 13.875 0.03125 C 13.007812 0.238281 11.976562 0.34375 10.78125 0.34375 Z M 10.78125 0.34375 "/></g></g></g><g fill="#183c5d" fill-opacity="1"><g transform="translate(257.527556, 243.269077)"><g><path d="M 12.46875 0 L 0.703125 0 L 0.703125 -1.875 L 0.8125 -1.875 C 1.207031 -1.875 1.570312 -1.898438 1.90625 -1.953125 C 2.238281 -2.015625 2.523438 -2.132812 2.765625 -2.3125 C 3.003906 -2.488281 3.191406 -2.742188 3.328125 -3.078125 C 3.460938 -3.410156 3.53125 -3.851562 3.53125 -4.40625 L 3.53125 -14.609375 C 3.53125 -15.128906 3.46875 -15.546875 3.34375 -15.859375 C 3.226562 -16.179688 3.054688 -16.425781 2.828125 -16.59375 C 2.609375 -16.769531 2.34375 -16.878906 2.03125 -16.921875 C 1.71875 -16.972656 1.367188 -17 0.984375 -17 L 0.875 -17 L 0.875 -18.875 L 8 -18.875 L 8.703125 -16.125 L 8.875 -16.125 C 9.101562 -16.65625 9.351562 -17.117188 9.625 -17.515625 C 9.90625 -17.910156 10.234375 -18.238281 10.609375 -18.5 C 10.992188 -18.769531 11.445312 -18.96875 11.96875 -19.09375 C 12.5 -19.226562 13.125 -19.296875 13.84375 -19.296875 C 15.226562 -19.296875 16.25 -19.050781 16.90625 -18.5625 C 17.5625 -18.070312 17.890625 -17.363281 17.890625 -16.4375 C 17.890625 -15.363281 17.5 -14.523438 16.71875 -13.921875 C 15.9375 -13.328125 14.832031 -13.03125 13.40625 -13.03125 C 13.40625 -13.507812 13.378906 -13.929688 13.328125 -14.296875 C 13.285156 -14.671875 13.195312 -14.976562 13.0625 -15.21875 C 12.925781 -15.457031 12.742188 -15.640625 12.515625 -15.765625 C 12.296875 -15.890625 12.019531 -15.953125 11.6875 -15.953125 C 11.28125 -15.953125 10.925781 -15.847656 10.625 -15.640625 C 10.332031 -15.441406 10.082031 -15.175781 9.875 -14.84375 C 9.664062 -14.519531 9.492188 -14.148438 9.359375 -13.734375 C 9.234375 -13.328125 9.128906 -12.910156 9.046875 -12.484375 C 8.972656 -12.066406 8.925781 -11.671875 8.90625 -11.296875 C 8.882812 -10.921875 8.875 -10.59375 8.875 -10.3125 L 8.875 -4.234375 C 8.875 -3.710938 8.9375 -3.296875 9.0625 -2.984375 C 9.1875 -2.671875 9.359375 -2.429688 9.578125 -2.265625 C 9.796875 -2.109375 10.054688 -2.003906 10.359375 -1.953125 C 10.660156 -1.898438 10.984375 -1.875 11.328125 -1.875 L 12.46875 -1.875 Z M 12.46875 0 "/></g></g></g><g fill="#183c5d" fill-opacity="1"><g transform="translate(275.937001, 243.269077)"><g><path d="M 10.453125 -17.046875 C 9.472656 -17.046875 8.691406 -16.554688 8.109375 -15.578125 C 7.523438 -14.609375 7.207031 -13.179688 7.15625 -11.296875 L 13.234375 -11.296875 C 13.234375 -12.191406 13.179688 -12.992188 13.078125 -13.703125 C 12.984375 -14.410156 12.820312 -15.007812 12.59375 -15.5 C 12.375 -16 12.085938 -16.378906 11.734375 -16.640625 C 11.390625 -16.910156 10.960938 -17.046875 10.453125 -17.046875 Z M 10.78125 0.34375 C 9.289062 0.34375 7.972656 0.125 6.828125 -0.3125 C 5.691406 -0.75 4.738281 -1.378906 3.96875 -2.203125 C 3.195312 -3.023438 2.617188 -4.035156 2.234375 -5.234375 C 1.847656 -6.429688 1.65625 -7.800781 1.65625 -9.34375 C 1.65625 -10.988281 1.847656 -12.4375 2.234375 -13.6875 C 2.617188 -14.9375 3.1875 -15.976562 3.9375 -16.8125 C 4.6875 -17.65625 5.601562 -18.285156 6.6875 -18.703125 C 7.769531 -19.117188 9.003906 -19.328125 10.390625 -19.328125 C 11.660156 -19.328125 12.804688 -19.144531 13.828125 -18.78125 C 14.847656 -18.425781 15.710938 -17.890625 16.421875 -17.171875 C 17.128906 -16.460938 17.671875 -15.582031 18.046875 -14.53125 C 18.429688 -13.476562 18.625 -12.25 18.625 -10.84375 L 18.625 -9.046875 L 7.078125 -9.046875 C 7.117188 -7.867188 7.25 -6.851562 7.46875 -6 C 7.695312 -5.15625 8.007812 -4.457031 8.40625 -3.90625 C 8.800781 -3.351562 9.28125 -2.941406 9.84375 -2.671875 C 10.414062 -2.410156 11.066406 -2.28125 11.796875 -2.28125 C 12.398438 -2.28125 12.957031 -2.351562 13.46875 -2.5 C 13.988281 -2.644531 14.457031 -2.84375 14.875 -3.09375 C 15.300781 -3.351562 15.671875 -3.660156 15.984375 -4.015625 C 16.296875 -4.367188 16.554688 -4.742188 16.765625 -5.140625 C 17.398438 -4.796875 17.71875 -4.222656 17.71875 -3.421875 C 17.71875 -2.921875 17.578125 -2.441406 17.296875 -1.984375 C 17.023438 -1.535156 16.601562 -1.140625 16.03125 -0.796875 C 15.457031 -0.453125 14.738281 -0.175781 13.875 0.03125 C 13.007812 0.238281 11.976562 0.34375 10.78125 0.34375 Z M 10.78125 0.34375 "/></g></g></g><g fill="#183c5d" fill-opacity="1"><g transform="translate(82.815973, 267.805617)"><g><path d="M 0.25 0 L 0.25 -0.515625 L 0.609375 -0.515625 C 0.703125 -0.515625 0.785156 -0.53125 0.859375 -0.5625 C 0.929688 -0.59375 0.992188 -0.648438 1.046875 -0.734375 C 1.097656 -0.828125 1.125 -0.945312 1.125 -1.09375 L 1.125 -5.953125 C 1.125 -6.109375 1.097656 -6.226562 1.046875 -6.3125 C 0.992188 -6.40625 0.929688 -6.46875 0.859375 -6.5 C 0.785156 -6.539062 0.703125 -6.5625 0.609375 -6.5625 L 0.25 -6.5625 L 0.25 -7.078125 L 3.46875 -7.078125 L 3.46875 -6.5625 L 3.109375 -6.5625 C 3.015625 -6.5625 2.925781 -6.539062 2.84375 -6.5 C 2.769531 -6.46875 2.710938 -6.40625 2.671875 -6.3125 C 2.628906 -6.226562 2.609375 -6.101562 2.609375 -5.9375 L 2.609375 -1.09375 C 2.609375 -0.957031 2.628906 -0.84375 2.671875 -0.75 C 2.722656 -0.664062 2.785156 -0.601562 2.859375 -0.5625 C 2.929688 -0.53125 3.015625 -0.515625 3.109375 -0.515625 L 3.46875 -0.515625 L 3.46875 0 Z M 0.25 0 "/></g></g></g><g fill="#183c5d" fill-opacity="1"><g transform="translate(86.529352, 267.805617)"><g><path d="M 0.25 0 L 0.25 -0.515625 L 0.484375 -0.515625 C 0.609375 -0.515625 0.71875 -0.53125 0.8125 -0.5625 C 0.90625 -0.59375 0.976562 -0.648438 1.03125 -0.734375 C 1.09375 -0.828125 1.125 -0.96875 1.125 -1.15625 L 1.125 -5.953125 C 1.125 -6.128906 1.09375 -6.257812 1.03125 -6.34375 C 0.976562 -6.4375 0.90625 -6.492188 0.8125 -6.515625 C 0.726562 -6.546875 0.640625 -6.5625 0.546875 -6.5625 L 0.25 -6.5625 L 0.25 -7.078125 L 2.390625 -7.078125 L 5.59375 -2.0625 L 5.59375 -5.953125 C 5.59375 -6.117188 5.5625 -6.242188 5.5 -6.328125 C 5.445312 -6.410156 5.378906 -6.46875 5.296875 -6.5 C 5.222656 -6.539062 5.128906 -6.5625 5.015625 -6.5625 L 4.71875 -6.5625 L 4.71875 -7.078125 L 7.140625 -7.078125 L 7.140625 -6.5625 L 6.859375 -6.5625 C 6.742188 -6.5625 6.640625 -6.539062 6.546875 -6.5 C 6.460938 -6.46875 6.394531 -6.40625 6.34375 -6.3125 C 6.300781 -6.21875 6.28125 -6.082031 6.28125 -5.90625 L 6.28125 0 L 5.359375 0 L 1.8125 -5.515625 L 1.8125 -1.15625 C 1.8125 -0.96875 1.832031 -0.828125 1.875 -0.734375 C 1.914062 -0.648438 1.976562 -0.59375 2.0625 -0.5625 C 2.15625 -0.53125 2.257812 -0.515625 2.375 -0.515625 L 2.671875 -0.515625 L 2.671875 0 Z M 0.25 0 "/></g></g></g><g fill="#183c5d" fill-opacity="1"><g transform="translate(93.817487, 267.805617)"><g><path d="M 1.359375 0 L 1.359375 -0.515625 L 1.625 -0.515625 C 1.75 -0.515625 1.859375 -0.53125 1.953125 -0.5625 C 2.046875 -0.59375 2.125 -0.648438 2.1875 -0.734375 C 2.25 -0.828125 2.28125 -0.96875 2.28125 -1.15625 L 2.28125 -6.484375 L 1.546875 -6.484375 C 1.273438 -6.484375 1.085938 -6.414062 0.984375 -6.28125 C 0.878906 -6.15625 0.8125 -5.984375 0.78125 -5.765625 L 0.71875 -5.171875 L 0.09375 -5.171875 L 0.140625 -7.078125 L 5.90625 -7.078125 L 5.96875 -5.171875 L 5.34375 -5.171875 L 5.265625 -5.765625 C 5.242188 -5.984375 5.179688 -6.15625 5.078125 -6.28125 C 4.972656 -6.414062 4.78125 -6.484375 4.5 -6.484375 L 3.78125 -6.484375 L 3.78125 -1.171875 C 3.78125 -0.972656 3.804688 -0.828125 3.859375 -0.734375 C 3.910156 -0.648438 3.984375 -0.59375 4.078125 -0.5625 C 4.179688 -0.53125 4.296875 -0.515625 4.421875 -0.515625 L 4.6875 -0.515625 L 4.6875 0 Z M 1.359375 0 "/></g></g></g><g fill="#183c5d" fill-opacity="1"><g transform="translate(99.867829, 267.805617)"><g><path d="M 0.25 0 L 0.25 -0.515625 L 0.59375 -0.515625 C 0.695312 -0.515625 0.785156 -0.53125 0.859375 -0.5625 C 0.941406 -0.601562 1.003906 -0.664062 1.046875 -0.75 C 1.097656 -0.832031 1.125 -0.941406 1.125 -1.078125 L 1.125 -5.9375 C 1.125 -6.125 1.097656 -6.257812 1.046875 -6.34375 C 0.992188 -6.4375 0.925781 -6.492188 0.84375 -6.515625 C 0.757812 -6.546875 0.671875 -6.5625 0.578125 -6.5625 L 0.25 -6.5625 L 0.25 -7.078125 L 5.40625 -7.078125 L 5.453125 -5.265625 L 4.78125 -5.265625 L 4.75 -5.71875 C 4.726562 -5.882812 4.691406 -6.019531 4.640625 -6.125 C 4.597656 -6.238281 4.53125 -6.328125 4.4375 -6.390625 C 4.34375 -6.453125 4.210938 -6.484375 4.046875 -6.484375 L 2.59375 -6.484375 L 2.59375 -4 L 4.796875 -4 L 4.796875 -3.40625 L 2.59375 -3.40625 L 2.59375 -0.59375 L 4.296875 -0.59375 C 4.453125 -0.59375 4.582031 -0.625 4.6875 -0.6875 C 4.789062 -0.757812 4.867188 -0.851562 4.921875 -0.96875 C 4.984375 -1.082031 5.023438 -1.210938 5.046875 -1.359375 L 5.109375 -1.8125 L 5.75 -1.8125 L 5.703125 0 Z M 0.25 0 "/></g></g></g><g fill="#183c5d" fill-opacity="1"><g transform="translate(105.908272, 267.805617)"><g><path d="M 3.921875 0.09375 C 3.160156 0.09375 2.523438 -0.0546875 2.015625 -0.359375 C 1.515625 -0.660156 1.132812 -1.082031 0.875 -1.625 C 0.625 -2.175781 0.5 -2.816406 0.5 -3.546875 C 0.5 -4.253906 0.628906 -4.878906 0.890625 -5.421875 C 1.148438 -5.972656 1.535156 -6.398438 2.046875 -6.703125 C 2.566406 -7.015625 3.207031 -7.171875 3.96875 -7.171875 C 4.476562 -7.171875 4.90625 -7.117188 5.25 -7.015625 C 5.59375 -6.910156 5.851562 -6.769531 6.03125 -6.59375 C 6.207031 -6.425781 6.296875 -6.238281 6.296875 -6.03125 C 6.296875 -5.800781 6.191406 -5.601562 5.984375 -5.4375 C 5.773438 -5.28125 5.476562 -5.203125 5.09375 -5.203125 C 5.09375 -5.460938 5.050781 -5.691406 4.96875 -5.890625 C 4.882812 -6.097656 4.753906 -6.257812 4.578125 -6.375 C 4.410156 -6.488281 4.195312 -6.546875 3.9375 -6.546875 C 3.5 -6.546875 3.140625 -6.429688 2.859375 -6.203125 C 2.585938 -5.972656 2.390625 -5.632812 2.265625 -5.1875 C 2.148438 -4.738281 2.09375 -4.191406 2.09375 -3.546875 C 2.09375 -2.898438 2.15625 -2.351562 2.28125 -1.90625 C 2.414062 -1.46875 2.625 -1.132812 2.90625 -0.90625 C 3.195312 -0.675781 3.582031 -0.5625 4.0625 -0.5625 C 4.164062 -0.5625 4.273438 -0.566406 4.390625 -0.578125 C 4.503906 -0.585938 4.613281 -0.609375 4.71875 -0.640625 L 4.71875 -2.109375 C 4.71875 -2.285156 4.691406 -2.425781 4.640625 -2.53125 C 4.597656 -2.632812 4.53125 -2.703125 4.4375 -2.734375 C 4.34375 -2.773438 4.222656 -2.796875 4.078125 -2.796875 L 3.9375 -2.796875 L 3.9375 -3.3125 L 6.8125 -3.3125 L 6.8125 -2.796875 L 6.734375 -2.796875 C 6.609375 -2.796875 6.503906 -2.773438 6.421875 -2.734375 C 6.347656 -2.691406 6.289062 -2.617188 6.25 -2.515625 C 6.21875 -2.410156 6.203125 -2.265625 6.203125 -2.078125 L 6.203125 -0.421875 C 5.847656 -0.253906 5.484375 -0.125 5.109375 -0.03125 C 4.742188 0.0507812 4.347656 0.09375 3.921875 0.09375 Z M 3.921875 0.09375 "/></g></g></g><g fill="#183c5d" fill-opacity="1"><g transform="translate(113.037975, 267.805617)"><g><path d="M 0.25 0 L 0.25 -0.515625 L 0.515625 -0.515625 C 0.617188 -0.515625 0.710938 -0.523438 0.796875 -0.546875 C 0.890625 -0.578125 0.96875 -0.632812 1.03125 -0.71875 C 1.09375 -0.8125 1.125 -0.941406 1.125 -1.109375 L 1.125 -5.953125 C 1.125 -6.128906 1.09375 -6.257812 1.03125 -6.34375 C 0.96875 -6.4375 0.890625 -6.492188 0.796875 -6.515625 C 0.703125 -6.546875 0.609375 -6.5625 0.515625 -6.5625 L 0.25 -6.5625 L 0.25 -7.078125 L 3.265625 -7.078125 C 3.890625 -7.078125 4.394531 -7.003906 4.78125 -6.859375 C 5.164062 -6.710938 5.441406 -6.5 5.609375 -6.21875 C 5.785156 -5.9375 5.875 -5.59375 5.875 -5.1875 C 5.875 -4.820312 5.8125 -4.515625 5.6875 -4.265625 C 5.570312 -4.023438 5.410156 -3.832031 5.203125 -3.6875 C 5.003906 -3.550781 4.785156 -3.441406 4.546875 -3.359375 L 5.6875 -1.34375 C 5.84375 -1.050781 5.984375 -0.835938 6.109375 -0.703125 C 6.242188 -0.578125 6.398438 -0.515625 6.578125 -0.515625 L 6.625 -0.515625 L 6.625 0 L 6.3125 0 C 5.957031 0 5.648438 -0.0195312 5.390625 -0.0625 C 5.128906 -0.113281 4.910156 -0.203125 4.734375 -0.328125 C 4.566406 -0.460938 4.421875 -0.648438 4.296875 -0.890625 L 3.203125 -3.078125 L 2.609375 -3.078125 L 2.609375 -1.109375 C 2.609375 -0.941406 2.628906 -0.8125 2.671875 -0.71875 C 2.722656 -0.632812 2.789062 -0.578125 2.875 -0.546875 C 2.96875 -0.523438 3.070312 -0.515625 3.1875 -0.515625 L 3.34375 -0.515625 L 3.34375 0 Z M 3.09375 -3.640625 C 3.53125 -3.640625 3.835938 -3.757812 4.015625 -4 C 4.203125 -4.25 4.296875 -4.617188 4.296875 -5.109375 C 4.296875 -5.441406 4.253906 -5.707031 4.171875 -5.90625 C 4.085938 -6.113281 3.953125 -6.265625 3.765625 -6.359375 C 3.585938 -6.453125 3.363281 -6.5 3.09375 -6.5 L 2.609375 -6.5 L 2.609375 -3.640625 Z M 3.09375 -3.640625 "/></g></g></g><g fill="#183c5d" fill-opacity="1"><g transform="translate(119.642852, 267.805617)"><g><path d="M 0.046875 0 L 0.046875 -0.515625 L 0.15625 -0.515625 C 0.257812 -0.515625 0.351562 -0.53125 0.4375 -0.5625 C 0.53125 -0.601562 0.613281 -0.675781 0.6875 -0.78125 C 0.757812 -0.882812 0.828125 -1.035156 0.890625 -1.234375 L 2.890625 -7.078125 L 4.1875 -7.078125 L 6.15625 -1.09375 C 6.207031 -0.945312 6.265625 -0.832031 6.328125 -0.75 C 6.390625 -0.664062 6.46875 -0.601562 6.5625 -0.5625 C 6.65625 -0.53125 6.757812 -0.515625 6.875 -0.515625 L 6.96875 -0.515625 L 6.96875 0 L 3.90625 0 L 3.90625 -0.515625 L 4.203125 -0.515625 C 4.335938 -0.515625 4.445312 -0.539062 4.53125 -0.59375 C 4.625 -0.65625 4.671875 -0.75 4.671875 -0.875 C 4.671875 -0.925781 4.664062 -0.976562 4.65625 -1.03125 C 4.644531 -1.09375 4.628906 -1.148438 4.609375 -1.203125 C 4.597656 -1.265625 4.582031 -1.316406 4.5625 -1.359375 L 4.25 -2.34375 L 2.015625 -2.34375 L 1.75 -1.484375 C 1.738281 -1.429688 1.722656 -1.367188 1.703125 -1.296875 C 1.691406 -1.234375 1.675781 -1.164062 1.65625 -1.09375 C 1.644531 -1.019531 1.640625 -0.957031 1.640625 -0.90625 C 1.640625 -0.78125 1.675781 -0.679688 1.75 -0.609375 C 1.820312 -0.546875 1.9375 -0.515625 2.09375 -0.515625 L 2.453125 -0.515625 L 2.453125 0 Z M 2.21875 -2.921875 L 4.0625 -2.921875 L 3.53125 -4.78125 C 3.476562 -4.9375 3.429688 -5.085938 3.390625 -5.234375 C 3.347656 -5.378906 3.304688 -5.523438 3.265625 -5.671875 C 3.234375 -5.816406 3.203125 -5.960938 3.171875 -6.109375 C 3.140625 -5.960938 3.101562 -5.816406 3.0625 -5.671875 C 3.03125 -5.535156 2.992188 -5.394531 2.953125 -5.25 C 2.910156 -5.113281 2.863281 -4.972656 2.8125 -4.828125 Z M 2.21875 -2.921875 "/></g></g></g><g fill="#183c5d" fill-opacity="1"><g transform="translate(126.614112, 267.805617)"><g><path d="M 0.25 0 L 0.25 -0.515625 L 0.484375 -0.515625 C 0.609375 -0.515625 0.71875 -0.53125 0.8125 -0.5625 C 0.90625 -0.59375 0.976562 -0.648438 1.03125 -0.734375 C 1.09375 -0.828125 1.125 -0.96875 1.125 -1.15625 L 1.125 -5.953125 C 1.125 -6.128906 1.09375 -6.257812 1.03125 -6.34375 C 0.976562 -6.4375 0.90625 -6.492188 0.8125 -6.515625 C 0.726562 -6.546875 0.640625 -6.5625 0.546875 -6.5625 L 0.25 -6.5625 L 0.25 -7.078125 L 2.390625 -7.078125 L 5.59375 -2.0625 L 5.59375 -5.953125 C 5.59375 -6.117188 5.5625 -6.242188 5.5 -6.328125 C 5.445312 -6.410156 5.378906 -6.46875 5.296875 -6.5 C 5.222656 -6.539062 5.128906 -6.5625 5.015625 -6.5625 L 4.71875 -6.5625 L 4.71875 -7.078125 L 7.140625 -7.078125 L 7.140625 -6.5625 L 6.859375 -6.5625 C 6.742188 -6.5625 6.640625 -6.539062 6.546875 -6.5 C 6.460938 -6.46875 6.394531 -6.40625 6.34375 -6.3125 C 6.300781 -6.21875 6.28125 -6.082031 6.28125 -5.90625 L 6.28125 0 L 5.359375 0 L 1.8125 -5.515625 L 1.8125 -1.15625 C 1.8125 -0.96875 1.832031 -0.828125 1.875 -0.734375 C 1.914062 -0.648438 1.976562 -0.59375 2.0625 -0.5625 C 2.15625 -0.53125 2.257812 -0.515625 2.375 -0.515625 L 2.671875 -0.515625 L 2.671875 0 Z M 0.25 0 "/></g></g></g><g fill="#183c5d" fill-opacity="1"><g transform="translate(133.902247, 267.805617)"><g><path d="M 0.25 0 L 0.25 -0.515625 L 0.609375 -0.515625 C 0.703125 -0.515625 0.785156 -0.535156 0.859375 -0.578125 C 0.941406 -0.617188 1.003906 -0.679688 1.046875 -0.765625 C 1.097656 -0.859375 1.125 -0.976562 1.125 -1.125 L 1.125 -5.96875 C 1.125 -6.125 1.097656 -6.242188 1.046875 -6.328125 C 0.992188 -6.410156 0.925781 -6.46875 0.84375 -6.5 C 0.757812 -6.539062 0.664062 -6.5625 0.5625 -6.5625 L 0.25 -6.5625 L 0.25 -7.078125 L 3.3125 -7.078125 C 4 -7.078125 4.585938 -6.945312 5.078125 -6.6875 C 5.566406 -6.425781 5.941406 -6.039062 6.203125 -5.53125 C 6.460938 -5.03125 6.59375 -4.40625 6.59375 -3.65625 C 6.59375 -2.9375 6.46875 -2.300781 6.21875 -1.75 C 5.976562 -1.195312 5.613281 -0.765625 5.125 -0.453125 C 4.632812 -0.148438 4.03125 0 3.3125 0 Z M 3.09375 -0.609375 C 3.519531 -0.609375 3.875 -0.726562 4.15625 -0.96875 C 4.4375 -1.21875 4.648438 -1.566406 4.796875 -2.015625 C 4.941406 -2.472656 5.015625 -3.019531 5.015625 -3.65625 C 5.015625 -4.289062 4.941406 -4.816406 4.796875 -5.234375 C 4.648438 -5.648438 4.4375 -5.960938 4.15625 -6.171875 C 3.875 -6.378906 3.523438 -6.484375 3.109375 -6.484375 L 2.59375 -6.484375 L 2.59375 -0.609375 Z M 3.09375 -0.609375 "/></g></g></g><g fill="#183c5d" fill-opacity="1"><g transform="translate(141.002241, 267.805617)"><g><path d="M 3.65625 0.09375 C 2.945312 0.09375 2.359375 -0.0546875 1.890625 -0.359375 C 1.429688 -0.660156 1.082031 -1.082031 0.84375 -1.625 C 0.613281 -2.175781 0.5 -2.820312 0.5 -3.5625 C 0.5 -4.289062 0.613281 -4.925781 0.84375 -5.46875 C 1.082031 -6.007812 1.4375 -6.429688 1.90625 -6.734375 C 2.375 -7.035156 2.957031 -7.1875 3.65625 -7.1875 C 4.332031 -7.1875 4.898438 -7.035156 5.359375 -6.734375 C 5.816406 -6.429688 6.164062 -6.003906 6.40625 -5.453125 C 6.65625 -4.910156 6.78125 -4.273438 6.78125 -3.546875 C 6.78125 -2.816406 6.65625 -2.175781 6.40625 -1.625 C 6.164062 -1.082031 5.8125 -0.660156 5.34375 -0.359375 C 4.882812 -0.0546875 4.320312 0.09375 3.65625 0.09375 Z M 3.640625 -0.53125 C 4.023438 -0.53125 4.332031 -0.648438 4.5625 -0.890625 C 4.789062 -1.128906 4.953125 -1.472656 5.046875 -1.921875 C 5.148438 -2.367188 5.203125 -2.910156 5.203125 -3.546875 C 5.203125 -4.179688 5.148438 -4.722656 5.046875 -5.171875 C 4.953125 -5.617188 4.789062 -5.957031 4.5625 -6.1875 C 4.34375 -6.425781 4.039062 -6.546875 3.65625 -6.546875 C 3.082031 -6.546875 2.675781 -6.28125 2.4375 -5.75 C 2.207031 -5.226562 2.09375 -4.492188 2.09375 -3.546875 C 2.09375 -2.910156 2.140625 -2.367188 2.234375 -1.921875 C 2.335938 -1.472656 2.503906 -1.128906 2.734375 -0.890625 C 2.960938 -0.648438 3.265625 -0.53125 3.640625 -0.53125 Z M 3.640625 -0.53125 "/></g></g></g><g fill="#183c5d" fill-opacity="1"><g transform="translate(148.290376, 267.805617)"><g/></g></g><g fill="#183c5d" fill-opacity="1"><g transform="translate(150.746163, 267.805617)"><g><path d="M 0.25 0 L 0.25 -0.515625 L 0.59375 -0.515625 C 0.695312 -0.515625 0.785156 -0.53125 0.859375 -0.5625 C 0.941406 -0.601562 1.003906 -0.664062 1.046875 -0.75 C 1.097656 -0.832031 1.125 -0.941406 1.125 -1.078125 L 1.125 -5.9375 C 1.125 -6.125 1.097656 -6.257812 1.046875 -6.34375 C 0.992188 -6.4375 0.925781 -6.492188 0.84375 -6.515625 C 0.757812 -6.546875 0.671875 -6.5625 0.578125 -6.5625 L 0.25 -6.5625 L 0.25 -7.078125 L 5.40625 -7.078125 L 5.453125 -5.265625 L 4.78125 -5.265625 L 4.75 -5.71875 C 4.726562 -5.882812 4.691406 -6.019531 4.640625 -6.125 C 4.597656 -6.238281 4.53125 -6.328125 4.4375 -6.390625 C 4.34375 -6.453125 4.210938 -6.484375 4.046875 -6.484375 L 2.59375 -6.484375 L 2.59375 -4 L 4.796875 -4 L 4.796875 -3.40625 L 2.59375 -3.40625 L 2.59375 -0.59375 L 4.296875 -0.59375 C 4.453125 -0.59375 4.582031 -0.625 4.6875 -0.6875 C 4.789062 -0.757812 4.867188 -0.851562 4.921875 -0.96875 C 4.984375 -1.082031 5.023438 -1.210938 5.046875 -1.359375 L 5.109375 -1.8125 L 5.75 -1.8125 L 5.703125 0 Z M 0.25 0 "/></g></g></g><g fill="#183c5d" fill-opacity="1"><g transform="translate(156.786606, 267.805617)"><g><path d="M 0.25 0 L 0.25 -0.515625 L 0.609375 -0.515625 C 0.703125 -0.515625 0.785156 -0.53125 0.859375 -0.5625 C 0.929688 -0.59375 0.992188 -0.648438 1.046875 -0.734375 C 1.097656 -0.828125 1.125 -0.945312 1.125 -1.09375 L 1.125 -5.96875 C 1.125 -6.113281 1.09375 -6.226562 1.03125 -6.3125 C 0.976562 -6.40625 0.910156 -6.46875 0.828125 -6.5 C 0.753906 -6.539062 0.664062 -6.5625 0.5625 -6.5625 L 0.25 -6.5625 L 0.25 -7.078125 L 3.46875 -7.078125 L 3.46875 -6.5625 L 3.15625 -6.5625 C 3.03125 -6.5625 2.925781 -6.539062 2.84375 -6.5 C 2.757812 -6.46875 2.695312 -6.410156 2.65625 -6.328125 C 2.625 -6.253906 2.609375 -6.144531 2.609375 -6 L 2.609375 -0.59375 L 4.328125 -0.59375 C 4.460938 -0.59375 4.578125 -0.625 4.671875 -0.6875 C 4.773438 -0.75 4.859375 -0.84375 4.921875 -0.96875 C 4.992188 -1.101562 5.050781 -1.265625 5.09375 -1.453125 L 5.234375 -2.203125 L 5.75 -2.203125 L 5.703125 0 Z M 0.25 0 "/></g></g></g><g fill="#183c5d" fill-opacity="1"><g transform="translate(162.836949, 267.805617)"><g/></g></g><g fill="#183c5d" fill-opacity="1"><g transform="translate(165.292736, 267.805617)"><g><path d="M 0.25 0 L 0.25 -0.515625 L 0.59375 -0.515625 C 0.695312 -0.515625 0.785156 -0.53125 0.859375 -0.5625 C 0.941406 -0.601562 1.003906 -0.664062 1.046875 -0.75 C 1.097656 -0.832031 1.125 -0.941406 1.125 -1.078125 L 1.125 -5.9375 C 1.125 -6.125 1.097656 -6.257812 1.046875 -6.34375 C 0.992188 -6.4375 0.925781 -6.492188 0.84375 -6.515625 C 0.757812 -6.546875 0.671875 -6.5625 0.578125 -6.5625 L 0.25 -6.5625 L 0.25 -7.078125 L 5.40625 -7.078125 L 5.453125 -5.265625 L 4.78125 -5.265625 L 4.75 -5.71875 C 4.726562 -5.882812 4.691406 -6.019531 4.640625 -6.125 C 4.597656 -6.238281 4.53125 -6.328125 4.4375 -6.390625 C 4.34375 -6.453125 4.210938 -6.484375 4.046875 -6.484375 L 2.59375 -6.484375 L 2.59375 -4 L 4.796875 -4 L 4.796875 -3.40625 L 2.59375 -3.40625 L 2.59375 -0.59375 L 4.296875 -0.59375 C 4.453125 -0.59375 4.582031 -0.625 4.6875 -0.6875 C 4.789062 -0.757812 4.867188 -0.851562 4.921875 -0.96875 C 4.984375 -1.082031 5.023438 -1.210938 5.046875 -1.359375 L 5.109375 -1.8125 L 5.75 -1.8125 L 5.703125 0 Z M 2.328125 -7.765625 C 2.421875 -7.910156 2.523438 -8.066406 2.640625 -8.234375 C 2.753906 -8.398438 2.863281 -8.570312 2.96875 -8.75 C 3.082031 -8.925781 3.171875 -9.085938 3.234375 -9.234375 L 4.71875 -9.234375 L 4.71875 -9.125 C 4.65625 -9.039062 4.554688 -8.929688 4.421875 -8.796875 C 4.296875 -8.671875 4.144531 -8.535156 3.96875 -8.390625 C 3.800781 -8.242188 3.628906 -8.101562 3.453125 -7.96875 C 3.285156 -7.84375 3.128906 -7.734375 2.984375 -7.640625 L 2.328125 -7.640625 Z M 2.328125 -7.765625 "/></g></g></g><g fill="#183c5d" fill-opacity="1"><g transform="translate(171.333179, 267.805617)"><g><path d="M 0.09375 0 L 0.09375 -0.515625 L 0.15625 -0.515625 C 0.289062 -0.515625 0.410156 -0.539062 0.515625 -0.59375 C 0.628906 -0.644531 0.726562 -0.722656 0.8125 -0.828125 C 0.90625 -0.929688 1.003906 -1.054688 1.109375 -1.203125 L 2.71875 -3.484375 L 1.203125 -6.03125 C 1.128906 -6.15625 1.054688 -6.253906 0.984375 -6.328125 C 0.921875 -6.398438 0.84375 -6.457031 0.75 -6.5 C 0.65625 -6.539062 0.539062 -6.5625 0.40625 -6.5625 L 0.28125 -6.5625 L 0.28125 -7.078125 L 3.375 -7.078125 L 3.375 -6.5625 L 3.328125 -6.5625 C 3.117188 -6.5625 2.976562 -6.53125 2.90625 -6.46875 C 2.832031 -6.40625 2.796875 -6.335938 2.796875 -6.265625 C 2.796875 -6.191406 2.816406 -6.101562 2.859375 -6 C 2.910156 -5.90625 2.972656 -5.800781 3.046875 -5.6875 L 3.796875 -4.421875 L 4.609375 -5.671875 C 4.671875 -5.765625 4.726562 -5.863281 4.78125 -5.96875 C 4.832031 -6.082031 4.859375 -6.179688 4.859375 -6.265625 C 4.859375 -6.390625 4.804688 -6.46875 4.703125 -6.5 C 4.609375 -6.539062 4.488281 -6.5625 4.34375 -6.5625 L 4.3125 -6.5625 L 4.3125 -7.078125 L 6.484375 -7.078125 L 6.484375 -6.5625 L 6.390625 -6.5625 C 6.273438 -6.5625 6.171875 -6.535156 6.078125 -6.484375 C 5.984375 -6.441406 5.890625 -6.367188 5.796875 -6.265625 C 5.703125 -6.171875 5.597656 -6.03125 5.484375 -5.84375 L 4.140625 -3.859375 L 5.84375 -1.046875 C 5.925781 -0.910156 6.007812 -0.800781 6.09375 -0.71875 C 6.175781 -0.644531 6.257812 -0.59375 6.34375 -0.5625 C 6.425781 -0.53125 6.503906 -0.515625 6.578125 -0.515625 L 6.703125 -0.515625 L 6.703125 0 L 3.625 0 L 3.625 -0.515625 L 3.671875 -0.515625 C 3.847656 -0.515625 3.984375 -0.539062 4.078125 -0.59375 C 4.171875 -0.65625 4.21875 -0.738281 4.21875 -0.84375 C 4.21875 -0.914062 4.203125 -0.992188 4.171875 -1.078125 C 4.140625 -1.160156 4.054688 -1.3125 3.921875 -1.53125 L 3.078125 -2.9375 L 2.078125 -1.46875 C 2.046875 -1.414062 2.007812 -1.351562 1.96875 -1.28125 C 1.925781 -1.207031 1.890625 -1.132812 1.859375 -1.0625 C 1.835938 -0.988281 1.828125 -0.914062 1.828125 -0.84375 C 1.828125 -0.738281 1.867188 -0.65625 1.953125 -0.59375 C 2.035156 -0.539062 2.179688 -0.515625 2.390625 -0.515625 L 2.421875 -0.515625 L 2.421875 0 Z M 0.09375 0 "/></g></g></g><g fill="#183c5d" fill-opacity="1"><g transform="translate(178.126197, 267.805617)"><g><path d="M 0.25 0 L 0.25 -0.515625 L 0.609375 -0.515625 C 0.703125 -0.515625 0.785156 -0.53125 0.859375 -0.5625 C 0.929688 -0.59375 0.992188 -0.648438 1.046875 -0.734375 C 1.097656 -0.828125 1.125 -0.945312 1.125 -1.09375 L 1.125 -5.953125 C 1.125 -6.109375 1.097656 -6.226562 1.046875 -6.3125 C 0.992188 -6.40625 0.929688 -6.46875 0.859375 -6.5 C 0.785156 -6.539062 0.703125 -6.5625 0.609375 -6.5625 L 0.25 -6.5625 L 0.25 -7.078125 L 3.46875 -7.078125 L 3.46875 -6.5625 L 3.109375 -6.5625 C 3.015625 -6.5625 2.925781 -6.539062 2.84375 -6.5 C 2.769531 -6.46875 2.710938 -6.40625 2.671875 -6.3125 C 2.628906 -6.226562 2.609375 -6.101562 2.609375 -5.9375 L 2.609375 -1.09375 C 2.609375 -0.957031 2.628906 -0.84375 2.671875 -0.75 C 2.722656 -0.664062 2.785156 -0.601562 2.859375 -0.5625 C 2.929688 -0.53125 3.015625 -0.515625 3.109375 -0.515625 L 3.46875 -0.515625 L 3.46875 0 Z M 0.25 0 "/></g></g></g><g fill="#183c5d" fill-opacity="1"><g transform="translate(181.839576, 267.805617)"><g><path d="M 1.359375 0 L 1.359375 -0.515625 L 1.625 -0.515625 C 1.75 -0.515625 1.859375 -0.53125 1.953125 -0.5625 C 2.046875 -0.59375 2.125 -0.648438 2.1875 -0.734375 C 2.25 -0.828125 2.28125 -0.96875 2.28125 -1.15625 L 2.28125 -6.484375 L 1.546875 -6.484375 C 1.273438 -6.484375 1.085938 -6.414062 0.984375 -6.28125 C 0.878906 -6.15625 0.8125 -5.984375 0.78125 -5.765625 L 0.71875 -5.171875 L 0.09375 -5.171875 L 0.140625 -7.078125 L 5.90625 -7.078125 L 5.96875 -5.171875 L 5.34375 -5.171875 L 5.265625 -5.765625 C 5.242188 -5.984375 5.179688 -6.15625 5.078125 -6.28125 C 4.972656 -6.414062 4.78125 -6.484375 4.5 -6.484375 L 3.78125 -6.484375 L 3.78125 -1.171875 C 3.78125 -0.972656 3.804688 -0.828125 3.859375 -0.734375 C 3.910156 -0.648438 3.984375 -0.59375 4.078125 -0.5625 C 4.179688 -0.53125 4.296875 -0.515625 4.421875 -0.515625 L 4.6875 -0.515625 L 4.6875 0 Z M 1.359375 0 "/></g></g></g><g fill="#183c5d" fill-opacity="1"><g transform="translate(187.889918, 267.805617)"><g><path d="M 3.65625 0.09375 C 2.945312 0.09375 2.359375 -0.0546875 1.890625 -0.359375 C 1.429688 -0.660156 1.082031 -1.082031 0.84375 -1.625 C 0.613281 -2.175781 0.5 -2.820312 0.5 -3.5625 C 0.5 -4.289062 0.613281 -4.925781 0.84375 -5.46875 C 1.082031 -6.007812 1.4375 -6.429688 1.90625 -6.734375 C 2.375 -7.035156 2.957031 -7.1875 3.65625 -7.1875 C 4.332031 -7.1875 4.898438 -7.035156 5.359375 -6.734375 C 5.816406 -6.429688 6.164062 -6.003906 6.40625 -5.453125 C 6.65625 -4.910156 6.78125 -4.273438 6.78125 -3.546875 C 6.78125 -2.816406 6.65625 -2.175781 6.40625 -1.625 C 6.164062 -1.082031 5.8125 -0.660156 5.34375 -0.359375 C 4.882812 -0.0546875 4.320312 0.09375 3.65625 0.09375 Z M 3.640625 -0.53125 C 4.023438 -0.53125 4.332031 -0.648438 4.5625 -0.890625 C 4.789062 -1.128906 4.953125 -1.472656 5.046875 -1.921875 C 5.148438 -2.367188 5.203125 -2.910156 5.203125 -3.546875 C 5.203125 -4.179688 5.148438 -4.722656 5.046875 -5.171875 C 4.953125 -5.617188 4.789062 -5.957031 4.5625 -6.1875 C 4.34375 -6.425781 4.039062 -6.546875 3.65625 -6.546875 C 3.082031 -6.546875 2.675781 -6.28125 2.4375 -5.75 C 2.207031 -5.226562 2.09375 -4.492188 2.09375 -3.546875 C 2.09375 -2.910156 2.140625 -2.367188 2.234375 -1.921875 C 2.335938 -1.472656 2.503906 -1.128906 2.734375 -0.890625 C 2.960938 -0.648438 3.265625 -0.53125 3.640625 -0.53125 Z M 3.640625 -0.53125 "/></g></g></g><g fill="#183c5d" fill-opacity="1"><g transform="translate(195.178053, 267.805617)"><g/></g></g><g fill="#183c5d" fill-opacity="1"><g transform="translate(197.63384, 267.805617)"><g><path d="M 0.25 0 L 0.25 -0.515625 L 0.59375 -0.515625 C 0.695312 -0.515625 0.785156 -0.53125 0.859375 -0.5625 C 0.941406 -0.601562 1.003906 -0.664062 1.046875 -0.75 C 1.097656 -0.832031 1.125 -0.941406 1.125 -1.078125 L 1.125 -5.9375 C 1.125 -6.125 1.097656 -6.257812 1.046875 -6.34375 C 0.992188 -6.4375 0.925781 -6.492188 0.84375 -6.515625 C 0.757812 -6.546875 0.671875 -6.5625 0.578125 -6.5625 L 0.25 -6.5625 L 0.25 -7.078125 L 5.40625 -7.078125 L 5.453125 -5.265625 L 4.78125 -5.265625 L 4.75 -5.71875 C 4.726562 -5.882812 4.691406 -6.019531 4.640625 -6.125 C 4.597656 -6.238281 4.53125 -6.328125 4.4375 -6.390625 C 4.34375 -6.453125 4.210938 -6.484375 4.046875 -6.484375 L 2.59375 -6.484375 L 2.59375 -4 L 4.796875 -4 L 4.796875 -3.40625 L 2.59375 -3.40625 L 2.59375 -0.59375 L 4.296875 -0.59375 C 4.453125 -0.59375 4.582031 -0.625 4.6875 -0.6875 C 4.789062 -0.757812 4.867188 -0.851562 4.921875 -0.96875 C 4.984375 -1.082031 5.023438 -1.210938 5.046875 -1.359375 L 5.109375 -1.8125 L 5.75 -1.8125 L 5.703125 0 Z M 0.25 0 "/></g></g></g><g fill="#183c5d" fill-opacity="1"><g transform="translate(203.674283, 267.805617)"><g><path d="M 0.25 0 L 0.25 -0.515625 L 0.484375 -0.515625 C 0.609375 -0.515625 0.71875 -0.53125 0.8125 -0.5625 C 0.90625 -0.59375 0.976562 -0.648438 1.03125 -0.734375 C 1.09375 -0.828125 1.125 -0.96875 1.125 -1.15625 L 1.125 -5.953125 C 1.125 -6.128906 1.09375 -6.257812 1.03125 -6.34375 C 0.976562 -6.4375 0.90625 -6.492188 0.8125 -6.515625 C 0.726562 -6.546875 0.640625 -6.5625 0.546875 -6.5625 L 0.25 -6.5625 L 0.25 -7.078125 L 2.390625 -7.078125 L 5.59375 -2.0625 L 5.59375 -5.953125 C 5.59375 -6.117188 5.5625 -6.242188 5.5 -6.328125 C 5.445312 -6.410156 5.378906 -6.46875 5.296875 -6.5 C 5.222656 -6.539062 5.128906 -6.5625 5.015625 -6.5625 L 4.71875 -6.5625 L 4.71875 -7.078125 L 7.140625 -7.078125 L 7.140625 -6.5625 L 6.859375 -6.5625 C 6.742188 -6.5625 6.640625 -6.539062 6.546875 -6.5 C 6.460938 -6.46875 6.394531 -6.40625 6.34375 -6.3125 C 6.300781 -6.21875 6.28125 -6.082031 6.28125 -5.90625 L 6.28125 0 L 5.359375 0 L 1.8125 -5.515625 L 1.8125 -1.15625 C 1.8125 -0.96875 1.832031 -0.828125 1.875 -0.734375 C 1.914062 -0.648438 1.976562 -0.59375 2.0625 -0.5625 C 2.15625 -0.53125 2.257812 -0.515625 2.375 -0.515625 L 2.671875 -0.515625 L 2.671875 0 Z M 0.25 0 "/></g></g></g><g fill="#183c5d" fill-opacity="1"><g transform="translate(210.962418, 267.805617)"><g/></g></g><g fill="#183c5d" fill-opacity="1"><g transform="translate(213.418206, 267.805617)"><g><path d="M 3.53125 0.09375 C 3.03125 0.09375 2.585938 0.0195312 2.203125 -0.125 C 1.828125 -0.28125 1.535156 -0.519531 1.328125 -0.84375 C 1.117188 -1.175781 1.015625 -1.613281 1.015625 -2.15625 L 1.015625 -5.953125 C 1.015625 -6.128906 0.984375 -6.257812 0.921875 -6.34375 C 0.867188 -6.4375 0.789062 -6.492188 0.6875 -6.515625 C 0.59375 -6.546875 0.484375 -6.5625 0.359375 -6.5625 L 0.15625 -6.5625 L 0.15625 -7.078125 L 3.359375 -7.078125 L 3.359375 -6.5625 L 3.15625 -6.5625 C 3.039062 -6.5625 2.929688 -6.546875 2.828125 -6.515625 C 2.722656 -6.484375 2.640625 -6.421875 2.578125 -6.328125 C 2.523438 -6.242188 2.5 -6.101562 2.5 -5.90625 L 2.5 -2.078125 C 2.5 -1.523438 2.617188 -1.140625 2.859375 -0.921875 C 3.109375 -0.703125 3.445312 -0.59375 3.875 -0.59375 C 4.144531 -0.59375 4.378906 -0.648438 4.578125 -0.765625 C 4.773438 -0.878906 4.925781 -1.046875 5.03125 -1.265625 C 5.144531 -1.492188 5.203125 -1.773438 5.203125 -2.109375 L 5.203125 -5.953125 C 5.203125 -6.128906 5.171875 -6.257812 5.109375 -6.34375 C 5.046875 -6.4375 4.96875 -6.492188 4.875 -6.515625 C 4.78125 -6.546875 4.671875 -6.5625 4.546875 -6.5625 L 4.34375 -6.5625 L 4.34375 -7.078125 L 6.765625 -7.078125 L 6.765625 -6.5625 L 6.5625 -6.5625 C 6.4375 -6.5625 6.320312 -6.546875 6.21875 -6.515625 C 6.125 -6.484375 6.046875 -6.421875 5.984375 -6.328125 C 5.921875 -6.242188 5.890625 -6.101562 5.890625 -5.90625 L 5.890625 -2.09375 C 5.890625 -1.65625 5.804688 -1.269531 5.640625 -0.9375 C 5.484375 -0.613281 5.226562 -0.359375 4.875 -0.171875 C 4.519531 0.00390625 4.070312 0.09375 3.53125 0.09375 Z M 3.53125 0.09375 "/></g></g></g><g fill="#183c5d" fill-opacity="1"><g transform="translate(220.330048, 267.805617)"><g><path d="M 0.25 0 L 0.25 -0.515625 L 0.484375 -0.515625 C 0.609375 -0.515625 0.71875 -0.53125 0.8125 -0.5625 C 0.90625 -0.59375 0.976562 -0.648438 1.03125 -0.734375 C 1.09375 -0.828125 1.125 -0.96875 1.125 -1.15625 L 1.125 -5.953125 C 1.125 -6.128906 1.09375 -6.257812 1.03125 -6.34375 C 0.976562 -6.4375 0.90625 -6.492188 0.8125 -6.515625 C 0.726562 -6.546875 0.640625 -6.5625 0.546875 -6.5625 L 0.25 -6.5625 L 0.25 -7.078125 L 2.390625 -7.078125 L 5.59375 -2.0625 L 5.59375 -5.953125 C 5.59375 -6.117188 5.5625 -6.242188 5.5 -6.328125 C 5.445312 -6.410156 5.378906 -6.46875 5.296875 -6.5 C 5.222656 -6.539062 5.128906 -6.5625 5.015625 -6.5625 L 4.71875 -6.5625 L 4.71875 -7.078125 L 7.140625 -7.078125 L 7.140625 -6.5625 L 6.859375 -6.5625 C 6.742188 -6.5625 6.640625 -6.539062 6.546875 -6.5 C 6.460938 -6.46875 6.394531 -6.40625 6.34375 -6.3125 C 6.300781 -6.21875 6.28125 -6.082031 6.28125 -5.90625 L 6.28125 0 L 5.359375 0 L 1.8125 -5.515625 L 1.8125 -1.15625 C 1.8125 -0.96875 1.832031 -0.828125 1.875 -0.734375 C 1.914062 -0.648438 1.976562 -0.59375 2.0625 -0.5625 C 2.15625 -0.53125 2.257812 -0.515625 2.375 -0.515625 L 2.671875 -0.515625 L 2.671875 0 Z M 0.25 0 "/></g></g></g><g fill="#183c5d" fill-opacity="1"><g transform="translate(227.618183, 267.805617)"><g/></g></g><g fill="#183c5d" fill-opacity="1"><g transform="translate(230.07397, 267.805617)"><g><path d="M 2.5 0.09375 C 2.082031 0.09375 1.726562 0.0546875 1.4375 -0.015625 C 1.15625 -0.0976562 0.929688 -0.207031 0.765625 -0.34375 C 0.609375 -0.476562 0.492188 -0.625 0.421875 -0.78125 C 0.347656 -0.945312 0.3125 -1.113281 0.3125 -1.28125 C 0.3125 -1.5 0.359375 -1.671875 0.453125 -1.796875 C 0.546875 -1.929688 0.664062 -2.023438 0.8125 -2.078125 C 0.96875 -2.140625 1.132812 -2.171875 1.3125 -2.171875 C 1.320312 -1.804688 1.382812 -1.492188 1.5 -1.234375 C 1.625 -0.984375 1.785156 -0.789062 1.984375 -0.65625 C 2.191406 -0.53125 2.414062 -0.46875 2.65625 -0.46875 C 3.019531 -0.46875 3.296875 -0.570312 3.484375 -0.78125 C 3.679688 -0.988281 3.78125 -1.25 3.78125 -1.5625 C 3.78125 -1.789062 3.71875 -1.988281 3.59375 -2.15625 C 3.476562 -2.320312 3.304688 -2.472656 3.078125 -2.609375 C 2.859375 -2.753906 2.578125 -2.898438 2.234375 -3.046875 C 1.796875 -3.242188 1.453125 -3.445312 1.203125 -3.65625 C 0.953125 -3.875 0.769531 -4.113281 0.65625 -4.375 C 0.539062 -4.644531 0.484375 -4.941406 0.484375 -5.265625 C 0.484375 -5.660156 0.582031 -6 0.78125 -6.28125 C 0.988281 -6.5625 1.265625 -6.78125 1.609375 -6.9375 C 1.953125 -7.09375 2.34375 -7.171875 2.78125 -7.171875 C 3.226562 -7.171875 3.597656 -7.113281 3.890625 -7 C 4.179688 -6.882812 4.398438 -6.734375 4.546875 -6.546875 C 4.691406 -6.367188 4.765625 -6.179688 4.765625 -5.984375 C 4.765625 -5.753906 4.675781 -5.570312 4.5 -5.4375 C 4.332031 -5.300781 4.054688 -5.234375 3.671875 -5.234375 C 3.671875 -5.453125 3.628906 -5.660156 3.546875 -5.859375 C 3.472656 -6.066406 3.359375 -6.238281 3.203125 -6.375 C 3.054688 -6.519531 2.863281 -6.59375 2.625 -6.59375 C 2.34375 -6.59375 2.113281 -6.507812 1.9375 -6.34375 C 1.769531 -6.1875 1.6875 -5.953125 1.6875 -5.640625 C 1.6875 -5.453125 1.726562 -5.28125 1.8125 -5.125 C 1.90625 -4.96875 2.0625 -4.8125 2.28125 -4.65625 C 2.507812 -4.5 2.832031 -4.332031 3.25 -4.15625 C 3.675781 -3.976562 4.019531 -3.785156 4.28125 -3.578125 C 4.539062 -3.367188 4.726562 -3.132812 4.84375 -2.875 C 4.957031 -2.613281 5.015625 -2.316406 5.015625 -1.984375 C 5.015625 -1.566406 4.910156 -1.203125 4.703125 -0.890625 C 4.492188 -0.578125 4.203125 -0.332031 3.828125 -0.15625 C 3.453125 0.0078125 3.007812 0.09375 2.5 0.09375 Z M 2.5 0.09375 "/></g></g></g><g fill="#183c5d" fill-opacity="1"><g transform="translate(235.431144, 267.805617)"><g><path d="M 3.65625 0.09375 C 2.945312 0.09375 2.359375 -0.0546875 1.890625 -0.359375 C 1.429688 -0.660156 1.082031 -1.082031 0.84375 -1.625 C 0.613281 -2.175781 0.5 -2.820312 0.5 -3.5625 C 0.5 -4.289062 0.613281 -4.925781 0.84375 -5.46875 C 1.082031 -6.007812 1.4375 -6.429688 1.90625 -6.734375 C 2.375 -7.035156 2.957031 -7.1875 3.65625 -7.1875 C 4.332031 -7.1875 4.898438 -7.035156 5.359375 -6.734375 C 5.816406 -6.429688 6.164062 -6.003906 6.40625 -5.453125 C 6.65625 -4.910156 6.78125 -4.273438 6.78125 -3.546875 C 6.78125 -2.816406 6.65625 -2.175781 6.40625 -1.625 C 6.164062 -1.082031 5.8125 -0.660156 5.34375 -0.359375 C 4.882812 -0.0546875 4.320312 0.09375 3.65625 0.09375 Z M 3.640625 -0.53125 C 4.023438 -0.53125 4.332031 -0.648438 4.5625 -0.890625 C 4.789062 -1.128906 4.953125 -1.472656 5.046875 -1.921875 C 5.148438 -2.367188 5.203125 -2.910156 5.203125 -3.546875 C 5.203125 -4.179688 5.148438 -4.722656 5.046875 -5.171875 C 4.953125 -5.617188 4.789062 -5.957031 4.5625 -6.1875 C 4.34375 -6.425781 4.039062 -6.546875 3.65625 -6.546875 C 3.082031 -6.546875 2.675781 -6.28125 2.4375 -5.75 C 2.207031 -5.226562 2.09375 -4.492188 2.09375 -3.546875 C 2.09375 -2.910156 2.140625 -2.367188 2.234375 -1.921875 C 2.335938 -1.472656 2.503906 -1.128906 2.734375 -0.890625 C 2.960938 -0.648438 3.265625 -0.53125 3.640625 -0.53125 Z M 3.640625 -0.53125 "/></g></g></g><g fill="#183c5d" fill-opacity="1"><g transform="translate(242.719279, 267.805617)"><g><path d="M 0.25 0 L 0.25 -0.515625 L 0.609375 -0.515625 C 0.703125 -0.515625 0.785156 -0.53125 0.859375 -0.5625 C 0.929688 -0.59375 0.992188 -0.648438 1.046875 -0.734375 C 1.097656 -0.828125 1.125 -0.945312 1.125 -1.09375 L 1.125 -5.96875 C 1.125 -6.113281 1.09375 -6.226562 1.03125 -6.3125 C 0.976562 -6.40625 0.910156 -6.46875 0.828125 -6.5 C 0.753906 -6.539062 0.664062 -6.5625 0.5625 -6.5625 L 0.25 -6.5625 L 0.25 -7.078125 L 3.46875 -7.078125 L 3.46875 -6.5625 L 3.15625 -6.5625 C 3.03125 -6.5625 2.925781 -6.539062 2.84375 -6.5 C 2.757812 -6.46875 2.695312 -6.410156 2.65625 -6.328125 C 2.625 -6.253906 2.609375 -6.144531 2.609375 -6 L 2.609375 -0.59375 L 4.328125 -0.59375 C 4.460938 -0.59375 4.578125 -0.625 4.671875 -0.6875 C 4.773438 -0.75 4.859375 -0.84375 4.921875 -0.96875 C 4.992188 -1.101562 5.050781 -1.265625 5.09375 -1.453125 L 5.234375 -2.203125 L 5.75 -2.203125 L 5.703125 0 Z M 0.25 0 "/></g></g></g><g fill="#183c5d" fill-opacity="1"><g transform="translate(248.769621, 267.805617)"><g><path d="M 3.65625 0.09375 C 2.945312 0.09375 2.359375 -0.0546875 1.890625 -0.359375 C 1.429688 -0.660156 1.082031 -1.082031 0.84375 -1.625 C 0.613281 -2.175781 0.5 -2.820312 0.5 -3.5625 C 0.5 -4.289062 0.613281 -4.925781 0.84375 -5.46875 C 1.082031 -6.007812 1.4375 -6.429688 1.90625 -6.734375 C 2.375 -7.035156 2.957031 -7.1875 3.65625 -7.1875 C 4.332031 -7.1875 4.898438 -7.035156 5.359375 -6.734375 C 5.816406 -6.429688 6.164062 -6.003906 6.40625 -5.453125 C 6.65625 -4.910156 6.78125 -4.273438 6.78125 -3.546875 C 6.78125 -2.816406 6.65625 -2.175781 6.40625 -1.625 C 6.164062 -1.082031 5.8125 -0.660156 5.34375 -0.359375 C 4.882812 -0.0546875 4.320312 0.09375 3.65625 0.09375 Z M 3.640625 -0.53125 C 4.023438 -0.53125 4.332031 -0.648438 4.5625 -0.890625 C 4.789062 -1.128906 4.953125 -1.472656 5.046875 -1.921875 C 5.148438 -2.367188 5.203125 -2.910156 5.203125 -3.546875 C 5.203125 -4.179688 5.148438 -4.722656 5.046875 -5.171875 C 4.953125 -5.617188 4.789062 -5.957031 4.5625 -6.1875 C 4.34375 -6.425781 4.039062 -6.546875 3.65625 -6.546875 C 3.082031 -6.546875 2.675781 -6.28125 2.4375 -5.75 C 2.207031 -5.226562 2.09375 -4.492188 2.09375 -3.546875 C 2.09375 -2.910156 2.140625 -2.367188 2.234375 -1.921875 C 2.335938 -1.472656 2.503906 -1.128906 2.734375 -0.890625 C 2.960938 -0.648438 3.265625 -0.53125 3.640625 -0.53125 Z M 3.640625 -0.53125 "/></g></g></g><g fill="#183c5d" fill-opacity="1"><g transform="translate(256.057756, 267.805617)"><g/></g></g><g fill="#183c5d" fill-opacity="1"><g transform="translate(258.513543, 267.805617)"><g><path d="M 0.25 0 L 0.25 -0.515625 L 0.609375 -0.515625 C 0.703125 -0.515625 0.785156 -0.53125 0.859375 -0.5625 C 0.929688 -0.59375 0.992188 -0.648438 1.046875 -0.734375 C 1.097656 -0.828125 1.125 -0.945312 1.125 -1.09375 L 1.125 -5.96875 C 1.125 -6.113281 1.09375 -6.226562 1.03125 -6.3125 C 0.976562 -6.40625 0.910156 -6.46875 0.828125 -6.5 C 0.753906 -6.539062 0.664062 -6.5625 0.5625 -6.5625 L 0.25 -6.5625 L 0.25 -7.078125 L 3.46875 -7.078125 L 3.46875 -6.5625 L 3.15625 -6.5625 C 3.03125 -6.5625 2.925781 -6.539062 2.84375 -6.5 C 2.757812 -6.46875 2.695312 -6.410156 2.65625 -6.328125 C 2.625 -6.253906 2.609375 -6.144531 2.609375 -6 L 2.609375 -0.59375 L 4.328125 -0.59375 C 4.460938 -0.59375 4.578125 -0.625 4.671875 -0.6875 C 4.773438 -0.75 4.859375 -0.84375 4.921875 -0.96875 C 4.992188 -1.101562 5.050781 -1.265625 5.09375 -1.453125 L 5.234375 -2.203125 L 5.75 -2.203125 L 5.703125 0 Z M 0.25 0 "/></g></g></g><g fill="#183c5d" fill-opacity="1"><g transform="translate(264.563886, 267.805617)"><g><path d="M 3.53125 0.09375 C 3.03125 0.09375 2.585938 0.0195312 2.203125 -0.125 C 1.828125 -0.28125 1.535156 -0.519531 1.328125 -0.84375 C 1.117188 -1.175781 1.015625 -1.613281 1.015625 -2.15625 L 1.015625 -5.953125 C 1.015625 -6.128906 0.984375 -6.257812 0.921875 -6.34375 C 0.867188 -6.4375 0.789062 -6.492188 0.6875 -6.515625 C 0.59375 -6.546875 0.484375 -6.5625 0.359375 -6.5625 L 0.15625 -6.5625 L 0.15625 -7.078125 L 3.359375 -7.078125 L 3.359375 -6.5625 L 3.15625 -6.5625 C 3.039062 -6.5625 2.929688 -6.546875 2.828125 -6.515625 C 2.722656 -6.484375 2.640625 -6.421875 2.578125 -6.328125 C 2.523438 -6.242188 2.5 -6.101562 2.5 -5.90625 L 2.5 -2.078125 C 2.5 -1.523438 2.617188 -1.140625 2.859375 -0.921875 C 3.109375 -0.703125 3.445312 -0.59375 3.875 -0.59375 C 4.144531 -0.59375 4.378906 -0.648438 4.578125 -0.765625 C 4.773438 -0.878906 4.925781 -1.046875 5.03125 -1.265625 C 5.144531 -1.492188 5.203125 -1.773438 5.203125 -2.109375 L 5.203125 -5.953125 C 5.203125 -6.128906 5.171875 -6.257812 5.109375 -6.34375 C 5.046875 -6.4375 4.96875 -6.492188 4.875 -6.515625 C 4.78125 -6.546875 4.671875 -6.5625 4.546875 -6.5625 L 4.34375 -6.5625 L 4.34375 -7.078125 L 6.765625 -7.078125 L 6.765625 -6.5625 L 6.5625 -6.5625 C 6.4375 -6.5625 6.320312 -6.546875 6.21875 -6.515625 C 6.125 -6.484375 6.046875 -6.421875 5.984375 -6.328125 C 5.921875 -6.242188 5.890625 -6.101562 5.890625 -5.90625 L 5.890625 -2.09375 C 5.890625 -1.65625 5.804688 -1.269531 5.640625 -0.9375 C 5.484375 -0.613281 5.226562 -0.359375 4.875 -0.171875 C 4.519531 0.00390625 4.070312 0.09375 3.53125 0.09375 Z M 3.53125 0.09375 "/></g></g></g><g fill="#183c5d" fill-opacity="1"><g transform="translate(271.475727, 267.805617)"><g><path d="M 3.921875 0.09375 C 3.160156 0.09375 2.523438 -0.0546875 2.015625 -0.359375 C 1.515625 -0.660156 1.132812 -1.082031 0.875 -1.625 C 0.625 -2.175781 0.5 -2.816406 0.5 -3.546875 C 0.5 -4.253906 0.628906 -4.878906 0.890625 -5.421875 C 1.148438 -5.972656 1.535156 -6.398438 2.046875 -6.703125 C 2.566406 -7.015625 3.207031 -7.171875 3.96875 -7.171875 C 4.476562 -7.171875 4.90625 -7.117188 5.25 -7.015625 C 5.59375 -6.910156 5.851562 -6.769531 6.03125 -6.59375 C 6.207031 -6.425781 6.296875 -6.238281 6.296875 -6.03125 C 6.296875 -5.800781 6.191406 -5.601562 5.984375 -5.4375 C 5.773438 -5.28125 5.476562 -5.203125 5.09375 -5.203125 C 5.09375 -5.460938 5.050781 -5.691406 4.96875 -5.890625 C 4.882812 -6.097656 4.753906 -6.257812 4.578125 -6.375 C 4.410156 -6.488281 4.195312 -6.546875 3.9375 -6.546875 C 3.5 -6.546875 3.140625 -6.429688 2.859375 -6.203125 C 2.585938 -5.972656 2.390625 -5.632812 2.265625 -5.1875 C 2.148438 -4.738281 2.09375 -4.191406 2.09375 -3.546875 C 2.09375 -2.898438 2.15625 -2.351562 2.28125 -1.90625 C 2.414062 -1.46875 2.625 -1.132812 2.90625 -0.90625 C 3.195312 -0.675781 3.582031 -0.5625 4.0625 -0.5625 C 4.164062 -0.5625 4.273438 -0.566406 4.390625 -0.578125 C 4.503906 -0.585938 4.613281 -0.609375 4.71875 -0.640625 L 4.71875 -2.109375 C 4.71875 -2.285156 4.691406 -2.425781 4.640625 -2.53125 C 4.597656 -2.632812 4.53125 -2.703125 4.4375 -2.734375 C 4.34375 -2.773438 4.222656 -2.796875 4.078125 -2.796875 L 3.9375 -2.796875 L 3.9375 -3.3125 L 6.8125 -3.3125 L 6.8125 -2.796875 L 6.734375 -2.796875 C 6.609375 -2.796875 6.503906 -2.773438 6.421875 -2.734375 C 6.347656 -2.691406 6.289062 -2.617188 6.25 -2.515625 C 6.21875 -2.410156 6.203125 -2.265625 6.203125 -2.078125 L 6.203125 -0.421875 C 5.847656 -0.253906 5.484375 -0.125 5.109375 -0.03125 C 4.742188 0.0507812 4.347656 0.09375 3.921875 0.09375 Z M 3.921875 0.09375 "/></g></g></g><g fill="#183c5d" fill-opacity="1"><g transform="translate(278.605419, 267.805617)"><g><path d="M 0.046875 0 L 0.046875 -0.515625 L 0.15625 -0.515625 C 0.257812 -0.515625 0.351562 -0.53125 0.4375 -0.5625 C 0.53125 -0.601562 0.613281 -0.675781 0.6875 -0.78125 C 0.757812 -0.882812 0.828125 -1.035156 0.890625 -1.234375 L 2.890625 -7.078125 L 4.1875 -7.078125 L 6.15625 -1.09375 C 6.207031 -0.945312 6.265625 -0.832031 6.328125 -0.75 C 6.390625 -0.664062 6.46875 -0.601562 6.5625 -0.5625 C 6.65625 -0.53125 6.757812 -0.515625 6.875 -0.515625 L 6.96875 -0.515625 L 6.96875 0 L 3.90625 0 L 3.90625 -0.515625 L 4.203125 -0.515625 C 4.335938 -0.515625 4.445312 -0.539062 4.53125 -0.59375 C 4.625 -0.65625 4.671875 -0.75 4.671875 -0.875 C 4.671875 -0.925781 4.664062 -0.976562 4.65625 -1.03125 C 4.644531 -1.09375 4.628906 -1.148438 4.609375 -1.203125 C 4.597656 -1.265625 4.582031 -1.316406 4.5625 -1.359375 L 4.25 -2.34375 L 2.015625 -2.34375 L 1.75 -1.484375 C 1.738281 -1.429688 1.722656 -1.367188 1.703125 -1.296875 C 1.691406 -1.234375 1.675781 -1.164062 1.65625 -1.09375 C 1.644531 -1.019531 1.640625 -0.957031 1.640625 -0.90625 C 1.640625 -0.78125 1.675781 -0.679688 1.75 -0.609375 C 1.820312 -0.546875 1.9375 -0.515625 2.09375 -0.515625 L 2.453125 -0.515625 L 2.453125 0 Z M 2.21875 -2.921875 L 4.0625 -2.921875 L 3.53125 -4.78125 C 3.476562 -4.9375 3.429688 -5.085938 3.390625 -5.234375 C 3.347656 -5.378906 3.304688 -5.523438 3.265625 -5.671875 C 3.234375 -5.816406 3.203125 -5.960938 3.171875 -6.109375 C 3.140625 -5.960938 3.101562 -5.816406 3.0625 -5.671875 C 3.03125 -5.535156 2.992188 -5.394531 2.953125 -5.25 C 2.910156 -5.113281 2.863281 -4.972656 2.8125 -4.828125 Z M 2.21875 -2.921875 "/></g></g></g><g fill="#183c5d" fill-opacity="1"><g transform="translate(285.576679, 267.805617)"><g><path d="M 0.25 0 L 0.25 -0.515625 L 0.515625 -0.515625 C 0.617188 -0.515625 0.710938 -0.523438 0.796875 -0.546875 C 0.890625 -0.578125 0.96875 -0.632812 1.03125 -0.71875 C 1.09375 -0.8125 1.125 -0.941406 1.125 -1.109375 L 1.125 -5.953125 C 1.125 -6.128906 1.09375 -6.257812 1.03125 -6.34375 C 0.96875 -6.4375 0.890625 -6.492188 0.796875 -6.515625 C 0.703125 -6.546875 0.609375 -6.5625 0.515625 -6.5625 L 0.25 -6.5625 L 0.25 -7.078125 L 3.265625 -7.078125 C 3.890625 -7.078125 4.394531 -7.003906 4.78125 -6.859375 C 5.164062 -6.710938 5.441406 -6.5 5.609375 -6.21875 C 5.785156 -5.9375 5.875 -5.59375 5.875 -5.1875 C 5.875 -4.820312 5.8125 -4.515625 5.6875 -4.265625 C 5.570312 -4.023438 5.410156 -3.832031 5.203125 -3.6875 C 5.003906 -3.550781 4.785156 -3.441406 4.546875 -3.359375 L 5.6875 -1.34375 C 5.84375 -1.050781 5.984375 -0.835938 6.109375 -0.703125 C 6.242188 -0.578125 6.398438 -0.515625 6.578125 -0.515625 L 6.625 -0.515625 L 6.625 0 L 6.3125 0 C 5.957031 0 5.648438 -0.0195312 5.390625 -0.0625 C 5.128906 -0.113281 4.910156 -0.203125 4.734375 -0.328125 C 4.566406 -0.460938 4.421875 -0.648438 4.296875 -0.890625 L 3.203125 -3.078125 L 2.609375 -3.078125 L 2.609375 -1.109375 C 2.609375 -0.941406 2.628906 -0.8125 2.671875 -0.71875 C 2.722656 -0.632812 2.789062 -0.578125 2.875 -0.546875 C 2.96875 -0.523438 3.070312 -0.515625 3.1875 -0.515625 L 3.34375 -0.515625 L 3.34375 0 Z M 3.09375 -3.640625 C 3.53125 -3.640625 3.835938 -3.757812 4.015625 -4 C 4.203125 -4.25 4.296875 -4.617188 4.296875 -5.109375 C 4.296875 -5.441406 4.253906 -5.707031 4.171875 -5.90625 C 4.085938 -6.113281 3.953125 -6.265625 3.765625 -6.359375 C 3.585938 -6.453125 3.363281 -6.5 3.09375 -6.5 L 2.609375 -6.5 L 2.609375 -3.640625 Z M 3.09375 -3.640625 "/></g></g></g></svg>